<?xml version="1.0" encoding="UTF-8"?>
<svg version="1.1" xmlns="http://www.w3.org/2000/svg" width="1500" height="231">
<path d="M0 0 C0.495 0.99 0.495 0.99 1 2 C1.78375 2.2475 2.5675 2.495 3.375 2.75 C7.0394535 4.49497786 7.52564511 6.24702601 9 10 C9.41343846 12.89858859 9.41750516 15.75550786 9.40063477 18.67993164 C9.41110336 19.95667 9.41110336 19.95667 9.42178345 21.25920105 C9.44170331 24.05962127 9.4412598 26.85967161 9.44140625 29.66015625 C9.45318258 31.6125945 9.46654744 33.56502375 9.48143005 35.5174408 C9.51757826 40.64962072 9.53780695 45.78172093 9.55297852 50.91400146 C9.57783042 59.13185713 9.61748131 67.34953666 9.67487907 75.56722832 C9.69119206 78.4350027 9.69498411 81.30261038 9.69789124 84.17042542 C9.70766835 85.9301075 9.71793176 87.68978696 9.72875977 89.44946289 C9.72493034 90.6426564 9.72493034 90.6426564 9.72102356 91.85995483 C9.75926109 95.99646069 10.02531552 99.32482607 12 103 C16.00651462 106.37660556 20.38392817 108.65369889 25.5 109.75 C30.63910849 108.64876247 34.79206922 106.11161165 39 103 C40.57555896 99.84888208 40.16205327 96.46631984 40.17358398 93.00537109 C40.1836145 91.76599792 40.1836145 91.76599792 40.19384766 90.50158691 C40.20791736 88.70314393 40.21980527 86.90468289 40.22979546 85.10621262 C40.2461954 82.25577049 40.26943599 79.40546079 40.29469299 76.55508423 C40.36547451 68.44906215 40.42542816 60.34298415 40.47680664 52.23681641 C40.50870048 47.28071863 40.55000947 42.32476996 40.59700203 37.36879349 C40.61296846 35.48307622 40.62531462 33.59732457 40.63390923 31.7115593 C40.64614101 29.06455217 40.67032571 26.41789145 40.69702148 23.77099609 C40.69761063 22.99873688 40.69819977 22.22647766 40.69880676 21.43081665 C40.78418423 15.00246818 41.25341045 9.09590746 45.5 4 C48 2 48 2 50 2 C50.33 1.34 50.66 0.68 51 0 C57.86277692 2.07918877 64.16220613 4.94552896 70.4375 8.375 C71.12328125 8.73779053 71.8090625 9.10058105 72.515625 9.47436523 C77.06035601 12.02517395 79.51800595 14.39148931 82 19 C82 19.66 82 20.32 82 21 C87.6451611 17.96146548 93.25403126 14.87614173 98.7890625 11.640625 C99.75070313 11.08246094 100.71234375 10.52429687 101.703125 9.94921875 C103.66368747 8.80905207 105.61938883 7.66048832 107.5703125 6.50390625 C120.10851327 -0.7257821 120.10851327 -0.7257821 127.09790039 0.3112793 C134.21345558 2.37259879 140.65821476 6.42914879 147.0625 10.0625 C148.26370377 10.73820648 149.4649574 11.4138243 150.66625977 12.08935547 C157.31163642 15.84013263 163.93000751 19.6388578 170.4375 23.625 C171.37444702 24.18973022 171.37444702 24.18973022 172.33032227 24.76586914 C177.00017273 27.69945086 180.23724079 30.71172237 182 36 C182.09811644 37.37789103 182.1433798 38.75994126 182.15390015 40.14128113 C182.16250061 40.9836734 182.17110107 41.82606567 182.17996216 42.69398499 C182.18635208 44.07559059 182.18635208 44.07559059 182.19287109 45.48510742 C182.20513733 46.94415497 182.20513733 46.94415497 182.21765137 48.43267822 C182.24249594 51.65693548 182.25902002 54.8811487 182.2734375 58.10546875 C182.27876118 59.20702112 182.28408485 60.30857349 182.28956985 61.44350624 C182.31629874 67.27523732 182.33567357 73.10694702 182.35009766 78.9387207 C182.36673497 84.95676286 182.41150643 90.9742563 182.4624691 96.99209118 C182.49615712 101.62387202 182.50767689 106.25552293 182.51332474 110.88741493 C182.52003398 113.1053416 182.53524743 115.32325982 182.55921555 117.54106712 C182.59089902 120.65047013 182.5908985 123.7583973 182.58349609 126.86791992 C182.59990143 127.77886917 182.61630676 128.68981842 182.63320923 129.62837219 C182.57269514 135.85905252 181.14369032 140.2545387 177 145 C174.4605128 146.94524689 171.85143466 148.43349982 169 149.875 C168.30132812 150.25140625 167.60265625 150.6278125 166.8828125 151.015625 C160.3300834 154.50217143 154.58215956 157.30726889 147 156 C142.72675797 153.09055862 141.53492286 150.25093205 140.3815918 145.3046875 C139.7032602 141.20779035 139.79231186 137.1407678 139.875 133 C139.88402344 132.12988281 139.89304688 131.25976562 139.90234375 130.36328125 C139.92565381 128.2420658 139.96151421 126.12099438 140 124 C139.16597656 124.37253906 138.33195313 124.74507813 137.47265625 125.12890625 C128.2451637 129.00804687 122.75262326 129.80853237 113.4375 126.4375 C112.303125 125.963125 111.16875 125.48875 110 125 C108.80763052 127.38473896 108.84486817 128.95227215 108.7890625 131.61328125 C108.76070312 132.53173828 108.73234375 133.45019531 108.703125 134.39648438 C108.65136062 136.32858982 108.60699631 138.26090878 108.5703125 140.19335938 C108.36190852 146.40640293 107.6151619 150.08308865 103.375 154.8125 C99.41831725 156.79084138 96.23038063 156.89510749 92 156 C81.23190368 151.95139864 71.05215912 146.69694688 66 136 C65.43716309 136.35191406 64.87432617 136.70382813 64.29443359 137.06640625 C58.76927474 140.51639336 53.22799201 143.93894481 47.67578125 147.34521484 C45.39369354 148.75652784 43.13162992 150.19310791 40.875 151.64453125 C33.907537 156.03320168 28.28868019 158.77261325 20 157 C11.59656147 153.44608973 3.71654713 148.6341014 -4.125 144 C-5.63513672 143.11441406 -5.63513672 143.11441406 -7.17578125 142.2109375 C-9.16259554 141.04403752 -11.14735932 139.873638 -13.12988281 138.69946289 C-15.03709448 137.57015867 -16.94789803 136.44689778 -18.86230469 135.32983398 C-19.75079102 134.80719971 -20.63927734 134.28456543 -21.5546875 133.74609375 C-22.73393799 133.05664673 -22.73393799 133.05664673 -23.93701172 132.35327148 C-29.44350374 128.74114305 -31.53789277 124.36341355 -33 118 C-33.27123967 114.9340759 -33.28383772 111.8875717 -33.2746582 108.81103516 C-33.27976913 107.91738754 -33.28488007 107.02373993 -33.29014587 106.10301208 C-33.30398342 103.16495971 -33.30308943 100.22714348 -33.30078125 97.2890625 C-33.30467151 95.23554396 -33.30900687 93.18202623 -33.31376648 91.12850952 C-33.32121625 86.82978708 -33.32094651 82.53114678 -33.31567383 78.23242188 C-33.30988234 72.73934352 -33.32680866 67.24660268 -33.3500185 61.75358009 C-33.36479174 57.51378431 -33.36562263 53.27406913 -33.36250877 49.03425217 C-33.36302023 47.00977282 -33.36822473 44.98528874 -33.37832069 42.9608345 C-33.39073683 40.12292159 -33.38386237 37.2856574 -33.37231445 34.44775391 C-33.37995819 33.62149002 -33.38760193 32.79522614 -33.39547729 31.94392395 C-33.33412971 25.08026089 -32.33505038 17.98648189 -27.3125 12.9375 C-19.44372604 6.92218457 -9.55849596 2.43940782 0 0 Z M108.69140625 56.86328125 C107.79663333 59.62848344 107.7353508 62.03329689 107.75 64.9375 C107.74484375 65.95714844 107.7396875 66.97679688 107.734375 68.02734375 C108.01669948 71.18688684 108.44156433 73.23563196 110 76 C112.38021043 77.89197381 112.38021043 77.89197381 115.25 79.3125 C116.64992187 80.08013672 116.64992187 80.08013672 118.078125 80.86328125 C122.52578712 82.59358831 125.51987592 82.62925061 129.921875 80.7578125 C130.85515625 80.21898437 131.7884375 79.68015625 132.75 79.125 C133.69359375 78.59132813 134.6371875 78.05765625 135.609375 77.5078125 C138.06562656 76.08161392 138.06562656 76.08161392 140 74 C140.2526603 71.16197848 140.37028432 68.46384221 140.375 65.625 C140.41173828 64.47257812 140.41173828 64.47257812 140.44921875 63.296875 C140.47864153 58.62436574 140.47864153 58.62436574 138.21484375 54.6328125 C137.48394531 54.09398437 136.75304687 53.55515625 136 53 C135.06220703 52.26523438 135.06220703 52.26523438 134.10546875 51.515625 C125.12971562 45.59272477 115.1188089 47.71142733 108.69140625 56.86328125 Z " fill="#FD3030" transform="translate(34,41)"/>
<path d="M0 0 C0.92490234 0.51304688 1.84980469 1.02609375 2.80273438 1.5546875 C8.30790461 4.6255463 13.71500944 7.82924434 19.06860352 11.15722656 C20.9758588 12.41020386 20.9758588 12.41020386 23.0625 12.25 C23.578125 11.38375 24.09375 10.5175 24.625 9.625 C30.0934458 1.09182084 43.31037305 -4.73685482 52.8125 -7.125 C53.885 -7.33125 54.9575 -7.5375 56.0625 -7.75 C56.0625 -7.09 56.0625 -6.43 56.0625 -5.75 C56.825625 -5.54375 57.58875 -5.3375 58.375 -5.125 C62.03398378 -3.25296179 62.56787229 -1.55692536 64.0625 2.25 C64.47568267 5.14862344 64.48000517 8.00550629 64.46313477 10.92993164 C64.47011383 11.78109055 64.4770929 12.63224945 64.48428345 13.50920105 C64.50420331 16.30962127 64.5037598 19.10967161 64.50390625 21.91015625 C64.51568258 23.8625945 64.52904744 25.81502375 64.54393005 27.7674408 C64.58007826 32.89962072 64.60030695 38.03172093 64.61547852 43.16400146 C64.64033042 51.38185713 64.67998131 59.59953666 64.73737907 67.81722832 C64.75369206 70.6850027 64.75748411 73.55261038 64.76039124 76.42042542 C64.77016835 78.1801075 64.78043176 79.93978696 64.79125977 81.69946289 C64.78870682 82.49492523 64.78615387 83.29038757 64.78352356 84.10995483 C64.82176109 88.24646069 65.08781552 91.57482607 67.0625 95.25 C71.06901462 98.62660556 75.44642817 100.90369889 80.5625 102 C85.70160849 100.89876247 89.85456922 98.36161165 94.0625 95.25 C95.63805896 92.09888208 95.22455327 88.71631984 95.23608398 85.25537109 C95.2461145 84.01599792 95.2461145 84.01599792 95.25634766 82.75158691 C95.27041736 80.95314393 95.28230527 79.15468289 95.29229546 77.35621262 C95.3086954 74.50577049 95.33193599 71.65546079 95.35719299 68.80508423 C95.42797451 60.69906215 95.48792816 52.59298415 95.53930664 44.48681641 C95.57120048 39.53071863 95.61250947 34.57476996 95.65950203 29.61879349 C95.67546846 27.73307622 95.68781462 25.84732457 95.69640923 23.9615593 C95.70864101 21.31455217 95.73282571 18.66789145 95.75952148 16.02099609 C95.76011063 15.24873688 95.76069977 14.47647766 95.76130676 13.68081665 C95.84668423 7.25246818 96.31591045 1.34590746 100.5625 -3.75 C103.0625 -5.75 103.0625 -5.75 105.0625 -5.75 C105.3925 -6.41 105.7225 -7.07 106.0625 -7.75 C112.87246133 -5.68681256 119.18383203 -2.85911719 125.4375 0.5 C126.11490234 0.84603271 126.79230469 1.19206543 127.49023438 1.54858398 C132.66889284 4.41827419 135.64215239 7.83544933 138.0625 13.25 C138.72236812 16.56918746 138.72818578 19.77482915 138.67773438 23.15087891 C138.68328339 24.10801285 138.6888324 25.06514679 138.69454956 26.05128479 C138.7062951 29.19356422 138.68212519 32.33438543 138.65625 35.4765625 C138.65453774 37.67035863 138.65460576 39.8641568 138.65637207 42.05795288 C138.65472181 46.64593188 138.63607448 51.23342051 138.60449219 55.82128906 C138.56476912 61.69694241 138.56045435 67.57195547 138.56795502 73.44771767 C138.57102641 77.97394661 138.55889883 82.50003207 138.54182434 87.02622604 C138.53480306 89.19272334 138.53166875 91.35923689 138.53251648 93.52574539 C138.5307157 96.55343208 138.50931073 99.5803557 138.48242188 102.60791016 C138.48535248 103.49949326 138.48828308 104.39107635 138.49130249 105.30967712 C138.41199334 111.10730239 137.53777979 115.44123773 133.56567383 119.94848633 C128.8973833 123.78216671 123.96916169 126.90659121 118.75 129.9375 C116.98260829 130.97968121 115.21569193 132.02266891 113.44921875 133.06640625 C112.11189697 133.85362061 112.11189697 133.85362061 110.74755859 134.65673828 C105.72828504 137.63507791 100.76551522 140.70606526 95.79956055 143.7722168 C95.10258057 144.20058838 94.40560059 144.62895996 93.6875 145.0703125 C93.08164062 145.44430176 92.47578125 145.81829102 91.8515625 146.20361328 C86.13232452 149.54868069 81.68223739 150.16631552 75.0625 149.25 C70.76547434 147.79196588 66.95287922 145.55090282 63.0625 143.25 C62.19431641 142.74049805 61.32613281 142.23099609 60.43164062 141.70605469 C56.45883652 139.37106768 52.48900097 137.03220565 48.53979492 134.6574707 C47.15691284 133.82735474 47.15691284 133.82735474 45.74609375 132.98046875 C44.91650146 132.47926514 44.08690918 131.97806152 43.23217773 131.46166992 C40.9952728 130.12399985 40.9952728 130.12399985 38.0625 129.25 C37.93875 130.095625 37.815 130.94125 37.6875 131.8125 C33.91304204 139.79693031 23.93427277 143.74456776 16.18359375 147.140625 C11.99684656 148.62878045 8.41030589 149.43906591 4.0625 148.25 C-0.21074203 145.34055862 -1.40257714 142.50093205 -2.5559082 137.5546875 C-3.2342398 133.45779035 -3.14518814 129.3907678 -3.0625 125.25 C-3.05347656 124.37988281 -3.04445313 123.50976562 -3.03515625 122.61328125 C-3.01184619 120.4920658 -2.97598579 118.37099438 -2.9375 116.25 C-3.77152344 116.62253906 -4.60554687 116.99507813 -5.46484375 117.37890625 C-14.6923363 121.25804687 -20.18487674 122.05853237 -29.5 118.6875 C-30.634375 118.213125 -31.76875 117.73875 -32.9375 117.25 C-34.12986948 119.63473896 -34.09263183 121.20227215 -34.1484375 123.86328125 C-34.19097656 125.2409668 -34.19097656 125.2409668 -34.234375 126.64648438 C-34.28613938 128.57858982 -34.33050369 130.51090878 -34.3671875 132.44335938 C-34.57559148 138.65640293 -35.3223381 142.33308865 -39.5625 147.0625 C-43.51918275 149.04084138 -46.70711937 149.14510749 -50.9375 148.25 C-58.98147142 145.22561828 -71.00753315 140.52004719 -74.84255409 132.31320953 C-76.75545299 126.70359634 -77.36925407 121.73973428 -77.32568359 115.83398438 C-77.33094055 114.94004471 -77.33619751 114.04610504 -77.34161377 113.12507629 C-77.35471591 110.19778479 -77.34611054 107.27104612 -77.3359375 104.34375 C-77.33796105 102.29308977 -77.34087482 100.24243024 -77.34463501 98.19177246 C-77.34904512 93.90495924 -77.34266964 89.61833422 -77.32861328 85.33154297 C-77.31152232 79.85419481 -77.32137054 74.37728775 -77.33933067 68.89995575 C-77.350204 64.66872879 -77.34670589 60.43760531 -77.3389473 56.20637512 C-77.3369551 54.1874842 -77.33936987 52.16858369 -77.34638596 50.14970398 C-77.35405902 47.32155696 -77.34231467 44.49411084 -77.32568359 41.66601562 C-77.33175629 40.84289383 -77.33782898 40.01977203 -77.34408569 39.17170715 C-77.27794884 33.05889004 -76.5556523 26.37849363 -72.49918175 21.53131866 C-67.29976051 16.62007791 -60.56030411 13.3538739 -54.375 9.875 C-53.20432305 9.21065547 -52.03399589 8.54569421 -50.86401367 7.88012695 C-48.58071879 6.58207104 -46.29540723 5.28782601 -44.00878906 3.99560547 C-41.44815265 2.54023581 -38.9024305 1.0653584 -36.3671875 -0.43359375 C-35.73756104 -0.80371582 -35.10793457 -1.17383789 -34.45922852 -1.55517578 C-32.89409603 -2.47757781 -31.33167314 -3.40457348 -29.76953125 -4.33203125 C-18.23470056 -10.10740165 -10.47469642 -5.96061837 0 0 Z M-34.24609375 49.11328125 C-35.14086667 51.87848344 -35.2021492 54.28329689 -35.1875 57.1875 C-35.19265625 58.20714844 -35.1978125 59.22679688 -35.203125 60.27734375 C-34.92080052 63.43688684 -34.49593567 65.48563196 -32.9375 68.25 C-30.55728957 70.14197381 -30.55728957 70.14197381 -27.6875 71.5625 C-26.28757812 72.33013672 -26.28757812 72.33013672 -24.859375 73.11328125 C-20.41171288 74.84358831 -17.41762408 74.87925061 -13.015625 73.0078125 C-12.08234375 72.46898437 -11.1490625 71.93015625 -10.1875 71.375 C-9.24390625 70.84132813 -8.3003125 70.30765625 -7.328125 69.7578125 C-4.87187344 68.33161392 -4.87187344 68.33161392 -2.9375 66.25 C-2.6848397 63.41197848 -2.56721568 60.71384221 -2.5625 57.875 C-2.52576172 56.72257812 -2.52576172 56.72257812 -2.48828125 55.546875 C-2.45885847 50.87436574 -2.45885847 50.87436574 -4.72265625 46.8828125 C-5.45355469 46.34398437 -6.18445313 45.80515625 -6.9375 45.25 C-7.87529297 44.51523438 -7.87529297 44.51523438 -8.83203125 43.765625 C-17.80778438 37.84272477 -27.8186911 39.96142733 -34.24609375 49.11328125 Z " fill="#FD3030" transform="translate(578.9375,48.75)"/>
<path d="M0 0 C1.19652357 0.67592376 2.39322102 1.35153979 3.59008789 2.02685547 C10.21700556 5.78075189 16.81562107 9.58715884 23.3125 13.5625 C23.93721191 13.93898682 24.56192383 14.31547363 25.20556641 14.70336914 C30.27762601 17.89006723 33.22474658 20.98673974 35.125 26.6875 C36.94168812 36.35487608 38.08230488 51.01233758 32.8046875 59.69921875 C30.30529009 62.94529149 27.49360138 65.07650501 23.875 66.9375 C24.41581975 70.73155854 25.86336854 72.09099396 28.8125 74.4375 C32.93231975 77.72737421 34.4970148 79.94886451 35.48828125 85.1640625 C37.95859475 109.26833366 37.95859475 109.26833366 31.7421875 117.8984375 C28.8764348 121.19186845 25.48049691 123.28340173 21.6875 125.375 C20.19135697 126.22647592 18.69526699 127.07804505 17.19921875 127.9296875 C16.36825684 128.39729492 15.53729492 128.86490234 14.68115234 129.34667969 C11.46758712 131.16846419 8.2737742 133.0231944 5.08203125 134.8828125 C3.30976966 135.91354959 1.53729592 136.94392079 -0.23526001 137.97415161 C-1.40897246 138.656434 -2.58245594 139.33911042 -3.75570679 140.02218628 C-5.41621976 140.98768157 -7.0791593 141.94899982 -8.7421875 142.91015625 C-10.19020752 143.74945679 -10.19020752 143.74945679 -11.66748047 144.60571289 C-17.11658552 147.55870991 -22.07122882 148.06872565 -28.125 146.9375 C-33.54717694 144.77224494 -38.50799581 141.60022684 -43.47265625 138.56005859 C-46.36291069 136.79195928 -49.27381708 135.06122674 -52.1875 133.33203125 C-74.97203734 119.70920856 -74.97203734 119.70920856 -78.125 111.9375 C-78.41483825 109.04757228 -78.55590652 106.37501209 -78.54492188 103.48876953 C-78.55339142 102.66193665 -78.56186096 101.83510376 -78.57058716 100.98321533 C-78.59390019 98.2620893 -78.59498063 95.54153066 -78.59375 92.8203125 C-78.60085536 90.91990942 -78.6085549 89.01950849 -78.61682129 87.11911011 C-78.63025327 83.13973017 -78.63184078 79.16054858 -78.62597656 75.18115234 C-78.62008373 70.09462177 -78.65066079 65.00904675 -78.69109344 59.92270088 C-78.71700929 55.99859536 -78.7198443 52.07471869 -78.71620178 48.1505394 C-78.7178896 46.2759346 -78.72749942 44.40131885 -78.74534607 42.52679825 C-78.76761189 39.8988981 -78.75779618 37.27291605 -78.74023438 34.64501953 C-78.75349762 33.87904449 -78.76676086 33.11306946 -78.78042603 32.32388306 C-78.69023382 26.48253994 -76.81199804 22.4593357 -73.125 17.9375 C-70.88449441 16.16352642 -68.94951513 14.81873568 -66.5 13.4375 C-65.83556885 13.04369141 -65.1711377 12.64988281 -64.48657227 12.24414062 C-62.94962424 11.33511799 -61.40798812 10.43399454 -59.86279297 9.5390625 C-57.26167513 8.01745263 -54.68114351 6.46480377 -52.10595703 4.89978027 C-49.69868357 3.43718923 -47.28655394 1.98273077 -44.87359619 0.52954102 C-43.6747984 -0.19330096 -42.47714655 -0.91804713 -41.28070068 -1.64477539 C-39.5761544 -2.67757432 -37.86433299 -3.69833612 -36.15234375 -4.71875 C-35.15968506 -5.31494141 -34.16702637 -5.91113281 -33.14428711 -6.52539062 C-20.43719465 -12.99453061 -11.37804539 -6.4941603 0 0 Z M-31.4375 41.3125 C-32.48550781 41.93898438 -33.53351563 42.56546875 -34.61328125 43.2109375 C-37.20493851 44.69425711 -37.20493851 44.69425711 -38.125 46.9375 C-38.23956534 48.39649852 -38.29436773 49.86042958 -38.31787109 51.32373047 C-38.33393402 52.23162323 -38.34999695 53.13951599 -38.36654663 54.07492065 C-38.41095129 58.22393071 -38.45205005 62.37278071 -38.47509766 66.52197266 C-38.49167294 68.71218479 -38.51898341 70.90234249 -38.55712891 73.09228516 C-38.61180235 76.24670528 -38.63375598 79.39985786 -38.6484375 82.5546875 C-38.67110687 83.5339621 -38.69377625 84.51323669 -38.71713257 85.52218628 C-38.79692165 91.07649594 -38.79692165 91.07649594 -35.71679688 95.50512695 C-34.86150391 95.97781006 -34.00621094 96.45049316 -33.125 96.9375 C-32.46757812 97.36675781 -31.81015625 97.79601562 -31.1328125 98.23828125 C-26.40141987 100.78066858 -23.47056227 101.5317905 -18.125 99.9375 C-14.0961633 98.02280533 -10.29472883 96.10722883 -7.125 92.9375 C-6.95818891 89.85402174 -6.95818891 89.85402174 -7.125 86.9375 C-8.61 87.185 -8.61 87.185 -10.125 87.4375 C-20.62691702 88.86184907 -20.62691702 88.86184907 -25.0625 86.125 C-29.5248451 81.39220975 -28.38512744 74.87758962 -28.4375 68.75 C-28.46650391 67.63818359 -28.49550781 66.52636719 -28.52539062 65.38085938 C-28.57685511 58.69443531 -28.16025375 53.44172383 -24.125 47.9375 C-21.91739362 45.78373768 -19.77993898 44.5713086 -17.125 42.9375 C-17.62256092 40.18108584 -17.62256092 40.18108584 -19.125 37.9375 C-24.24374026 37.41288533 -27.09815017 38.66457794 -31.4375 41.3125 Z " fill="#FD3030" transform="translate(345.125,51.0625)"/>
<path d="M0 0 C1.13199353 0.9080162 2.25532363 1.82683826 3.375 2.75 C4.00148438 3.26046875 4.62796875 3.7709375 5.2734375 4.296875 C8.8533002 7.82814228 9.25678494 11.03827193 9.31884766 15.96191406 C9.33871735 17.16285706 9.35858704 18.36380005 9.37905884 19.60113525 C9.39061005 20.89291687 9.40216125 22.18469849 9.4140625 23.515625 C9.43277987 24.85513495 9.45235371 26.19463318 9.4727478 27.53411865 C9.52401524 31.05213503 9.56366952 34.57018962 9.60089111 38.08837891 C9.64096474 41.68141082 9.69204171 45.27428454 9.7421875 48.8671875 C9.83888278 55.91134242 9.9233079 62.9555966 10 70 C16.56319358 67.26508127 22.67730782 63.98523588 28.875 60.5 C30.46054687 59.62794922 30.46054687 59.62794922 32.078125 58.73828125 C33.08101563 58.17496094 34.08390625 57.61164063 35.1171875 57.03125 C36.48786377 56.26651367 36.48786377 56.26651367 37.88623047 55.48632812 C40.29494101 54.10541424 40.29494101 54.10541424 41 51 C41.09812595 49.66092675 41.14537277 48.31770465 41.15771484 46.97509766 C41.17310806 45.76836899 41.17310806 45.76836899 41.18881226 44.53726196 C41.19611359 43.67160614 41.20341492 42.80595032 41.2109375 41.9140625 C41.23900464 40.07811606 41.26766909 38.24217868 41.296875 36.40625 C41.33813672 33.51399983 41.37502806 30.62191896 41.40136719 27.72949219 C41.42900176 24.93649485 41.47487015 22.14426384 41.5234375 19.3515625 C41.52669037 18.48995514 41.52994324 17.62834778 41.53329468 16.7406311 C41.64820239 11.11685905 42.45589701 7.5069628 46.60546875 3.41796875 C48.0703125 2.27864583 49.53515625 1.13932292 51 0 C57.89083992 2.5114966 64.25196642 5.51812549 70.4375 9.4375 C71.3049585 9.97588501 71.3049585 9.97588501 72.18994141 10.52514648 C77.52156154 14.0008425 81.70187086 17.71176174 83.12225342 24.06469727 C84.15908688 29.14397337 84.28185666 34.07263514 84.25878906 39.2421875 C84.2622937 40.2239093 84.26579834 41.2056311 84.26940918 42.21710205 C84.27815423 45.43647501 84.27240293 48.65562512 84.265625 51.875 C84.26697372 54.12744183 84.26891599 56.37988338 84.27142334 58.63232422 C84.27436482 63.34280176 84.27010836 68.05320321 84.26074219 72.76367188 C84.24934832 78.78573666 84.25591302 84.80762314 84.26788712 90.8296814 C84.27513206 95.47779674 84.27280568 100.12587017 84.26763153 104.77398682 C84.26630232 106.99383567 84.26791708 109.21368839 84.27259064 111.43353271 C84.27769922 114.54172776 84.2698849 117.64963849 84.25878906 120.7578125 C84.26283752 121.66509094 84.26688599 122.57236938 84.27105713 123.50714111 C84.21972148 131.31364386 83.82508061 139.2790702 78.25 145.23046875 C70.32148214 151.46591769 60.60214992 156.41866219 50.44921875 156.359375 C48 156 48 156 44.9375 153.625 C42.480216 150.29577652 41.87393203 148.69538083 41.79467773 144.64208984 C41.7647599 143.29091568 41.7647599 143.29091568 41.73423767 141.91244507 C41.71752518 140.93844757 41.70081268 139.96445007 41.68359375 138.9609375 C41.66281265 137.96494537 41.64203156 136.96895325 41.62062073 135.94277954 C41.55510958 132.75359146 41.49623296 129.56431942 41.4375 126.375 C41.39431627 124.21613707 41.35070203 122.0572827 41.30664062 119.8984375 C41.19942664 114.5990477 41.09766315 109.29957394 41 104 C40.31687744 104.37439209 39.63375488 104.74878418 38.92993164 105.13452148 C34.32244408 107.6545205 29.71088035 110.16119903 25.05859375 112.59765625 C23.51808572 113.41900184 21.97771916 114.24061284 20.4375 115.0625 C19.24930664 115.67448242 19.24930664 115.67448242 18.03710938 116.29882812 C16.90305664 116.91081055 16.90305664 116.91081055 15.74609375 117.53515625 C15.07247803 117.889729 14.3988623 118.24430176 13.70483398 118.60961914 C11.38648008 120.50035743 10.83089817 122.14380374 10 125 C9.70230507 127.70075693 9.70230507 127.70075693 9.7265625 130.52734375 C9.7059375 131.56697266 9.6853125 132.60660156 9.6640625 133.67773438 C9.63806859 135.84692606 9.61981071 138.01622455 9.609375 140.18554688 C9.4711902 146.3846707 9.23244226 150.3157802 5 155 C1.07442064 156.96278968 -2.7369098 156.72529931 -7 156 C-15.68895046 152.86827008 -26.78212315 147.85068518 -31.375 139.5 C-32.92126353 133.31494588 -33.14839235 127.4364581 -33.14526367 121.09838867 C-33.14862228 120.11710495 -33.1519809 119.13582123 -33.15544128 118.12480164 C-33.16491991 114.8891777 -33.16689287 111.65360569 -33.16796875 108.41796875 C-33.17118356 106.16123941 -33.1745478 103.90451028 -33.17805481 101.64778137 C-33.18403841 96.91939816 -33.18589551 92.19103321 -33.18530273 87.46264648 C-33.18520118 81.41696754 -33.19885043 75.37140621 -33.21607494 69.32575512 C-33.2272178 64.66477424 -33.22922123 60.00382158 -33.22869301 55.34282875 C-33.22986979 53.11460274 -33.23427455 50.88637592 -33.24202538 48.65816307 C-33.25187099 45.53529096 -33.2489291 42.41267148 -33.24291992 39.28979492 C-33.24853943 38.37780334 -33.25415894 37.46581177 -33.25994873 36.52618408 C-33.22186681 28.70055445 -32.85158442 20.7574133 -27.22265625 14.82421875 C-19.26155031 8.2902355 -9.73414052 3.27525199 0 0 Z " fill="#FE3030" transform="translate(416,42)"/>
<path d="M0 0 C2.96582031 1.40771484 2.96582031 1.40771484 6.078125 3.2109375 C6.64317749 3.53530792 7.20822998 3.85967834 7.79040527 4.19387817 C9.61570661 5.24516051 11.43289177 6.30962958 13.25 7.375 C14.50390607 8.10147392 15.7581399 8.82738239 17.01269531 9.55273438 C26.77057332 15.21130009 36.43178085 21.02619122 46 27 C40.64675475 33.01017091 32.7521371 37.80756982 25 40 C20.39306628 39.36731444 17.63863087 36.76629244 14 34 C10.81710803 32.12271177 7.56397379 30.38006944 4.3125 28.625 C2.72395797 27.74453329 1.13661274 26.86190193 -0.44921875 25.9765625 C-1.47535278 25.40542725 -1.47535278 25.40542725 -2.5222168 24.82275391 C-3.00988525 24.55124512 -3.49755371 24.27973633 -4 24 C-4.34683838 25.14118286 -4.34683838 25.14118286 -4.70068359 26.30541992 C-6.28075027 29.58223237 -7.6290081 30.38096227 -10.7890625 32.11328125 C-11.73007812 32.63857422 -12.67109375 33.16386719 -13.640625 33.70507812 C-14.62546875 34.23552734 -15.6103125 34.76597656 -16.625 35.3125 C-17.61757813 35.86228516 -18.61015625 36.41207031 -19.6328125 36.97851562 C-22.08158094 38.33240202 -24.53706177 39.67211919 -27 41 C-29.13172187 56.47362747 -29.13172187 56.47362747 -25.78710938 71.11279297 C-22.71432316 74.15948949 -19.15026933 75.61344074 -15.13330078 77.16650391 C-14.42931152 77.44155762 -13.72532227 77.71661133 -13 78 C-12.11940918 78.3407959 -11.23881836 78.6815918 -10.33154297 79.03271484 C-7.37153793 80.43326654 -5.28596137 81.6437858 -3 84 C-1.63126669 88.6398631 -1.73480182 93.06820538 -1.875 97.875 C-1.87113281 99.76605469 -1.87113281 99.76605469 -1.8671875 101.6953125 C-1.8671875 104.79990154 -1.91290028 107.89683392 -2 111 C5.72991869 108.03576225 13.74489039 104.60357219 19 98 C21.90854619 88.78570488 20.9339193 78.49878079 20 69 C19.1032959 68.71914551 18.2065918 68.43829102 17.28271484 68.14892578 C14.45933434 67.1607636 12.06896959 66.08246107 9.4765625 64.6171875 C8.76064941 64.21612793 8.04473633 63.81506836 7.30712891 63.40185547 C5.9794751 62.64606201 5.9794751 62.64606201 4.625 61.875 C0.355625 59.461875 0.355625 59.461875 -4 57 C-4 47.1 -4 37.2 -4 27 C1.81118369 29.90559184 7.1234081 32.56726514 12.5625 35.9375 C19.60634058 40.26200809 26.80887754 44.29226364 34.02734375 48.31640625 C35.19338636 48.96769298 36.35936177 49.61910004 37.52526855 50.27062988 C40.34952308 51.8482665 43.1744459 53.42469249 46 55 C46.39583307 62.51760761 46.69686066 70.03412682 46.88080692 77.55981255 C46.96917187 81.05633891 47.08861439 84.54569304 47.2824707 88.03808594 C48.49213257 110.42668073 48.49213257 110.42668073 44.49810791 116.1534729 C40.61039144 119.64125319 36.13124416 121.45318093 31.24874878 123.15905762 C27.8591346 124.42663817 24.90019075 126.26282852 21.828125 128.15234375 C19.63585906 129.41483102 17.44315912 130.67656499 15.25 131.9375 C13.02581133 133.21704762 10.80184418 134.49698038 8.578125 135.77734375 C7.62325195 136.32640381 6.66837891 136.87546387 5.68457031 137.44116211 C2.97950291 138.96311955 2.97950291 138.96311955 0.46386719 140.76391602 C-2 142 -2 142 -4.48852539 141.85644531 C-7.25785975 140.91206649 -9.63596814 139.73828556 -12.18359375 138.296875 C-13.18398682 137.73436035 -14.18437988 137.1718457 -15.21508789 136.59228516 C-16.27848389 135.98433105 -17.34187988 135.37637695 -18.4375 134.75 C-19.53247803 134.13044434 -20.62745605 133.51088867 -21.75561523 132.87255859 C-32.58536545 126.72086771 -43.31296129 120.39582368 -54 114 C-48.85430893 108.54862431 -42.51045168 102.69590844 -35 101 C-29.73145154 101.64010402 -25.3132304 104.80027239 -20.99169922 107.69091797 C-18.36826944 109.41521687 -15.64545141 110.9229961 -12.90063477 112.44360352 C-10.24234323 113.92111507 -7.62217462 115.45947241 -5 117 C-4.505 115.02 -4.505 115.02 -4 113 C-4.88341064 112.72921631 -5.76682129 112.45843262 -6.67700195 112.17944336 C-9.78382743 111.07672689 -12.34066707 109.8059562 -15.16796875 108.12890625 C-16.13532959 107.55938232 -17.10269043 106.9898584 -18.09936523 106.40307617 C-19.11844971 105.79568604 -20.13753418 105.1882959 -21.1875 104.5625 C-23.32790598 103.29910803 -25.46853414 102.03609241 -27.609375 100.7734375 C-28.67736328 100.14147461 -29.74535156 99.50951172 -30.84570312 98.85839844 C-36.33080053 95.62677603 -41.85224026 92.45814661 -47.3737793 89.28930664 C-52.89203344 86.10796656 -52.89203344 86.10796656 -54 85 C-54.92207689 77.70872631 -55.08658054 70.29588224 -55.32562351 62.95645618 C-55.43906498 59.5567619 -55.59655883 56.17272701 -55.86547852 52.78149414 C-57.18360705 34.84769028 -57.18360705 34.84769028 -54 27 C-48.40301997 20.62462948 -40.60282222 17.42794224 -32.90414429 14.24295044 C-29.19894918 12.65715668 -26.00272446 10.71659689 -22.6171875 8.53515625 C-21.63878906 7.94412109 -20.66039062 7.35308594 -19.65234375 6.74414062 C-17.72333513 5.57615439 -15.80194807 4.39552458 -13.88671875 3.20507812 C-12.93152344 2.63337891 -11.97632813 2.06167969 -10.9921875 1.47265625 C-10.17089355 0.97000244 -9.34959961 0.46734863 -8.50341797 -0.05053711 C-5.19350158 -1.30587793 -3.39409459 -0.94616532 0 0 Z " fill="#B3B3B3" transform="translate(808,42)"/>
<path d="M0 0 C0.33 25.74 0.66 51.48 1 78 C7.6 74.04 14.2 70.08 21 66 C25.34150693 63.56521983 29.6749731 61.15740568 34.0625 58.8125 C35.09181641 58.25498047 36.12113281 57.69746094 37.18164062 57.12304688 C44.58029884 53.13990039 44.58029884 53.13990039 48 52 C48 34.84 48 17.68 48 0 C51.63 1.98 55.26 3.96 59 6 C60.42031021 6.53846054 61.84062042 7.07692108 63.30397034 7.63169861 C67.60496745 9.32139181 71.24048245 11.18747044 74 15 C76.75649294 23.31301809 75.73812736 32.63478788 75.46484375 41.25390625 C75.43684717 43.84172915 75.41550452 46.42963186 75.40052795 49.01756287 C75.34923073 55.1180425 75.23122357 61.21383385 75.08028561 67.31255239 C74.91210692 74.26005527 74.8300273 81.20776216 74.75485408 88.15679657 C74.59842793 102.4400448 74.33492353 116.71987746 74 131 C70.04533792 133.17341896 66.08568659 135.33758201 62.125 137.5 C60.99707031 138.12003906 59.86914062 138.74007812 58.70703125 139.37890625 C57.63066406 139.96542969 56.55429687 140.55195313 55.4453125 141.15625 C54.45031738 141.70087891 53.45532227 142.24550781 52.43017578 142.80664062 C50 144 50 144 48 144 C48 123.54 48 103.08 48 82 C25.69584734 94.86239412 25.69584734 94.86239412 3.65039062 108.13647461 C2 109 2 109 0 109 C0 120.55 0 132.1 0 144 C-4.16511153 142.61162949 -7.24853758 141.4715959 -10.9609375 139.3984375 C-12.28544922 138.66367187 -12.28544922 138.66367187 -13.63671875 137.9140625 C-14.54035156 137.40617188 -15.44398438 136.89828125 -16.375 136.375 C-17.30183594 135.859375 -18.22867188 135.34375 -19.18359375 134.8125 C-21.45829425 133.54617189 -23.73028792 132.27524075 -26 131 C-26.56303022 116.13707063 -26.98497312 101.27497025 -27.24349213 86.40361691 C-27.36678652 79.49614626 -27.53445691 72.59533094 -27.81054688 65.69213867 C-28.07729573 59.01926836 -28.21507263 52.35469733 -28.27705383 45.67627144 C-28.32115892 43.13930441 -28.4073181 40.60268542 -28.53752136 38.0686779 C-29.33584011 21.87678841 -29.33584011 21.87678841 -26 15 C-20.33719777 8.95538376 -8.71514447 0 0 0 Z " fill="#B3B3B3" transform="translate(899,41)"/>
<path d="M0 0 C3.05472599 0.92712289 5.57236998 2.20796148 8.35961914 3.7668457 C9.46072021 4.37971436 10.56182129 4.99258301 11.69628906 5.62402344 C12.87463084 6.28976568 14.0527682 6.95586986 15.23071289 7.62231445 C16.43671471 8.2984166 17.64285191 8.97427732 18.84912109 9.64990234 C29.24711989 15.49377425 39.50155907 21.57226813 49.66821289 27.80981445 C43.36402557 34.58525979 33.47537594 40.16923825 24.66821289 42.80981445 C18.99634098 42.68101978 14.9733997 39.22745271 10.66821289 35.80981445 C9.0234319 34.7742116 7.35903223 33.7684112 5.66821289 32.80981445 C4.70915039 32.19106445 4.70915039 32.19106445 3.73071289 31.55981445 C0.5944101 30.41934071 -1.11733975 30.87131741 -4.33178711 31.80981445 C-7.42098104 33.43298724 -10.30539559 35.31223384 -13.20678711 37.24731445 C-13.99053711 37.75069336 -14.77428711 38.25407227 -15.58178711 38.77270508 C-18.53692527 40.68276618 -18.53692527 40.68276618 -21.33178711 42.80981445 C-21.33178711 43.46981445 -21.33178711 44.12981445 -21.33178711 44.80981445 C-20.66348877 45.18154785 -19.99519043 45.55328125 -19.30664062 45.9362793 C3.15258442 58.44038589 3.15258442 58.44038589 13.48071289 64.43481445 C14.15996826 64.82330566 14.83922363 65.21179688 15.5390625 65.61206055 C19.05078076 67.66842739 21.94441309 69.7772716 24.66821289 72.80981445 C23.59442383 73.4130957 22.52063477 74.01637695 21.41430664 74.63793945 C19.97810145 75.44521819 18.54190395 76.25251058 17.10571289 77.05981445 C16.40124023 77.45555664 15.69676758 77.85129883 14.97094727 78.2590332 C14.27163086 78.65219727 13.57231445 79.04536133 12.85180664 79.45043945 C11.79775635 80.03535156 11.79775635 80.03535156 10.72241211 80.63208008 C9.38978724 81.39611411 8.07659751 82.19551016 6.78979492 83.03442383 C4.08845359 84.76244949 2.11145988 85.7942946 -1.12084961 85.9074707 C-5.96822758 84.25039867 -10.26902 81.78199417 -14.70678711 79.24731445 C-17.88303711 77.45293945 -21.05928711 75.65856445 -24.33178711 73.80981445 C-24.33178711 82.71981445 -24.33178711 91.62981445 -24.33178711 100.80981445 C-22.68178711 101.46981445 -21.03178711 102.12981445 -19.33178711 102.80981445 C-17.97472411 103.51793872 -16.63033716 104.25094891 -15.30053711 105.0090332 C-14.5722168 105.4131543 -13.84389648 105.81727539 -13.09350586 106.23364258 C-11.58067716 107.07889316 -10.07284596 107.93314853 -8.57006836 108.79614258 C-7.84174805 109.19639648 -7.11342773 109.59665039 -6.36303711 110.0090332 C-5.70883789 110.37859131 -5.05463867 110.74814941 -4.38061523 111.12890625 C-0.77268642 112.32796648 1.86875277 111.19171872 5.19750977 109.6015625 C6.52878906 108.844198 6.52878906 108.844198 7.88696289 108.0715332 C9.39516602 107.22002686 9.39516602 107.22002686 10.93383789 106.35131836 C12.00118164 105.73949707 13.06852539 105.12767578 14.16821289 104.49731445 C15.26649414 103.87518066 16.36477539 103.25304687 17.49633789 102.61206055 C20.89164637 100.68606399 24.28090579 98.74984443 27.66821289 96.80981445 C28.7265332 96.20379395 29.78485352 95.59777344 30.87524414 94.97338867 C31.88973633 94.39218262 32.90422852 93.81097656 33.94946289 93.2121582 C35.39869141 92.38228394 35.39869141 92.38228394 36.87719727 91.53564453 C38.71350474 90.48240204 40.54818993 89.4263252 42.38110352 88.3671875 C43.60603516 87.66203003 43.60603516 87.66203003 44.85571289 86.94262695 C45.57114258 86.52899902 46.28657227 86.11537109 47.02368164 85.68920898 C48.66821289 84.80981445 48.66821289 84.80981445 49.66821289 84.80981445 C51.15286895 94.67897045 52.49609623 105.08628754 49.66821289 114.80981445 C44.64321825 121.36773156 36.55214723 124.15820207 29.1340332 127.25170898 C23.28946714 129.87921114 17.97128346 133.36108793 12.54321289 136.74731445 C10.59384442 137.96268473 8.63356841 139.16082053 6.66040039 140.3371582 C5.83910645 140.83981201 5.0178125 141.34246582 4.17163086 141.86035156 C0.92766431 143.09067982 -1.00953127 142.68554968 -4.33178711 141.80981445 C-6.84192553 140.50847541 -9.18902118 139.17349054 -11.58178711 137.68481445 C-13.06778004 136.78474667 -14.55483561 135.88643188 -16.04272461 134.98950195 C-16.86740234 134.4903125 -17.69208008 133.99112305 -18.54174805 133.47680664 C-24.05480626 130.18286531 -29.63673324 127.00609735 -35.20678711 123.80981445 C-37.45493928 122.51945168 -39.70219492 121.22756968 -41.94897461 119.93481445 C-42.91432129 119.38051758 -43.87966797 118.8262207 -44.87426758 118.25512695 C-46.72868304 117.16451106 -48.54175708 116.00316781 -50.33178711 114.80981445 C-50.70804063 112.05729161 -50.88647118 109.51932937 -50.94213867 106.75512695 C-50.96988373 105.92233719 -50.99762878 105.08954742 -51.0262146 104.23152161 C-51.11107564 101.46607151 -51.17029906 98.7010684 -51.22241211 95.93481445 C-51.24087944 94.98929718 -51.25934677 94.04377991 -51.27837372 93.0696106 C-51.37036177 88.05913614 -51.43859793 83.04886611 -51.49194336 78.0378418 C-51.54082141 73.89757897 -51.63807212 69.76288905 -51.77905273 65.62475586 C-51.94932895 60.62257096 -52.03507201 55.62549309 -52.06151581 50.62054443 C-52.08527109 48.71911235 -52.13797991 46.81780176 -52.22089386 44.91802979 C-52.71746548 32.8746959 -52.71746548 32.8746959 -50.33178711 27.80981445 C-46.26742414 23.45032252 -40.92277698 21.08122353 -35.51666641 18.78160095 C-32.0755149 17.25105207 -28.88510873 15.32569924 -25.65209961 13.40356445 C-24.44645494 12.71363575 -23.23959797 12.02581681 -22.03100586 11.34106445 C-21.44367676 11.00719727 -20.85634766 10.67333008 -20.2512207 10.3293457 C-19.65905762 9.99290039 -19.06689453 9.65645508 -18.45678711 9.30981445 C-16.0211675 7.925665 -13.58640176 6.54002928 -11.15209961 5.15356445 C-10.10296387 4.55737305 -9.05382813 3.96118164 -7.97290039 3.34692383 C-1.94896876 -0.15896206 -1.94896876 -0.15896206 0 0 Z " fill="#B4B4B4" transform="translate(1445.331787109375,40.190185546875)"/>
<path d="M0 0 C2.71312765 0.93109487 4.96345964 2.0859947 7.42529297 3.55957031 C8.37533203 4.12208496 9.32537109 4.68459961 10.30419922 5.26416016 C11.31611328 5.87211426 12.32802734 6.48006836 13.37060547 7.10644531 C15.51299379 8.37609437 17.6562474 9.64428433 19.80029297 10.91113281 C20.89954102 11.56178711 21.99878906 12.21244141 23.13134766 12.8828125 C28.55057391 16.06198703 34.02044872 19.14988933 39.49560547 22.23144531 C40.49833496 22.79637695 41.50106445 23.36130859 42.53417969 23.94335938 C44.85384704 25.24916754 47.17425462 26.553633 49.49560547 27.85644531 C46.72351554 30.80810382 43.96466494 32.98506759 40.51123047 35.09082031 C39.57666016 35.66445312 38.64208984 36.23808594 37.67919922 36.82910156 C36.71111328 37.415625 35.74302734 38.00214844 34.74560547 38.60644531 C33.76205078 39.2084375 32.77849609 39.81042969 31.76513672 40.43066406 C29.3449711 41.91095954 26.92176737 43.38600565 24.49560547 44.85644531 C14.3877371 39.47100236 14.3877371 39.47100236 10.04638672 36.64160156 C9.47557373 36.27292969 8.90476074 35.90425781 8.31665039 35.52441406 C6.68395619 34.46023681 5.06218414 33.37935958 3.44091797 32.29785156 C-0.01472673 30.60669388 -0.90563068 30.80487821 -4.50439453 31.85644531 C-6.82833908 33.05024318 -6.82833908 33.05024318 -9.07861328 34.57910156 C-10.32674805 35.38637695 -10.32674805 35.38637695 -11.60009766 36.20996094 C-12.45539063 36.77392578 -13.31068359 37.33789062 -14.19189453 37.91894531 C-15.90154286 39.03879675 -17.61366294 40.15488667 -19.32861328 41.26660156 C-20.08231201 41.76297119 -20.83601074 42.25934082 -21.61254883 42.77075195 C-23.50439453 43.85644531 -23.50439453 43.85644531 -25.50439453 43.85644531 C-25.50439453 62.66644531 -25.50439453 81.47644531 -25.50439453 100.85644531 C-23.52439453 101.51644531 -21.54439453 102.17644531 -19.50439453 102.85644531 C-17.42480469 104.12841797 -17.42480469 104.12841797 -15.54345703 105.52050781 C-8.03535988 111.04633603 -8.03535988 111.04633603 0.77929688 112.60058594 C5.17783083 111.14707261 8.94808839 108.76531439 12.70800781 106.09765625 C15.5231866 104.14294866 18.5031544 102.52361318 21.49560547 100.85644531 C20.79886719 100.58944824 20.10212891 100.32245117 19.38427734 100.04736328 C11.68048317 96.88468524 3.82331568 93.45298723 -1.50439453 86.85644531 C-4.4121595 77.22732494 -2.91692073 66.65436949 -1.50439453 56.85644531 C1.66637574 58.06201828 4.5551676 59.37512671 7.44482422 61.14941406 C8.19860352 61.60799805 8.95238281 62.06658203 9.72900391 62.5390625 C10.53885742 63.03567383 11.34871094 63.53228516 12.18310547 64.04394531 C20.64022876 69.17851277 29.16971426 74.17402719 37.74560547 79.10644531 C38.33248138 79.44412933 38.9193573 79.78181335 39.52401733 80.12973022 C42.84651705 82.04101402 46.17042003 83.94983828 49.49560547 85.85644531 C50.98063111 95.37012879 52.29684771 105.4911179 49.49560547 114.85644531 C44.43378582 121.34064633 36.34633836 124.16654655 28.96582031 127.28662109 C23.12003811 129.93108286 17.76280655 133.37071902 12.30810547 136.73144531 C10.34350223 137.92964602 8.37135636 139.11561176 6.39013672 140.28613281 C5.56360596 140.7835498 4.7370752 141.2809668 3.88549805 141.79345703 C1.16276279 143.00448873 -0.55510839 143.18137684 -3.50439453 142.85644531 C-6.01692413 141.58974889 -8.31726444 140.28271195 -10.69189453 138.79394531 C-12.1881971 137.88329235 -13.68567687 136.97457197 -15.18408203 136.06738281 C-16.01520508 135.56174805 -16.84632812 135.05611328 -17.70263672 134.53515625 C-20.8679663 132.63860639 -24.06062745 130.79237132 -27.26220703 128.95800781 C-27.84398209 128.62448807 -28.42575714 128.29096832 -29.02516174 127.94734192 C-31.93837073 126.27854463 -34.85324763 124.61270169 -37.76879883 122.94799805 C-38.84299072 122.33126221 -39.91718262 121.71452637 -41.02392578 121.07910156 C-42.46409058 120.25551147 -42.46409058 120.25551147 -43.93334961 119.4152832 C-44.78179443 118.9008667 -45.63023926 118.3864502 -46.50439453 117.85644531 C-47.20249237 117.49776367 -47.90059021 117.13908203 -48.61984253 116.76953125 C-51.50844803 113.83718948 -51.16710485 110.59352699 -51.22827148 106.68823242 C-51.25616257 105.85529663 -51.28405365 105.02236084 -51.31278992 104.16418457 C-51.39681086 101.40406957 -51.44833813 98.64481374 -51.49267578 95.88378906 C-51.51022604 94.93918886 -51.5277763 93.99458866 -51.54585838 93.02136421 C-51.63517696 88.01731227 -51.69743926 83.01369011 -51.73999023 78.0090332 C-51.78974141 72.85335207 -51.93753783 67.70539724 -52.10787678 62.55249691 C-52.22036543 58.57762195 -52.25666796 54.60456111 -52.27306175 50.62823677 C-52.29431028 48.72964123 -52.34422075 46.83113022 -52.42406654 44.93409538 C-52.89935274 32.90848354 -52.89935274 32.90848354 -50.50439453 27.85644531 C-46.42146071 23.49666677 -41.06703419 21.11428056 -35.64797783 18.80843353 C-32.38101486 17.35754041 -29.3966337 15.54253833 -26.33251953 13.70410156 C-24.14025359 12.4416143 -21.94755365 11.17988032 -19.75439453 9.91894531 C-17.53020586 8.63939769 -15.30623871 7.35946493 -13.08251953 6.07910156 C-12.12764648 5.5300415 -11.17277344 4.98098145 -10.18896484 4.4152832 C-7.48389744 2.89332576 -7.48389744 2.89332576 -4.96826172 1.0925293 C-2.50439453 -0.14355469 -2.50439453 -0.14355469 0 0 Z " fill="#B4B4B4" transform="translate(1207.50439453125,40.1435546875)"/>
<path d="M0 0 C0.99652588 0.64904297 1.99305176 1.29808594 3.01977539 1.96679688 C4.99230194 3.09627054 6.9688569 4.21873928 8.94946289 5.33398438 C10.93342047 6.49954099 12.91516163 7.66887774 14.89477539 8.84179688 C16.98691816 10.07278438 19.07936493 11.30325538 21.17211914 12.53320312 C22.17098145 13.12117676 23.16984375 13.70915039 24.19897461 14.31494141 C29.00586462 17.12984688 33.85230999 19.87348608 38.70336914 22.61132812 C41.01977539 23.96679688 41.01977539 23.96679688 42.01977539 24.96679688 C42.11513781 28.1329235 42.14528176 31.27720315 42.13330078 34.44360352 C42.13344681 35.43861374 42.13359283 36.43362396 42.13374329 37.45878601 C42.1330437 40.7648635 42.12524918 44.07088542 42.11743164 47.37695312 C42.11556762 49.66238881 42.11414364 51.94782489 42.11314392 54.23326111 C42.10931746 60.26178075 42.09948609 66.29027646 42.08843994 72.31878662 C42.07822857 78.46512529 42.07364689 84.6114678 42.06860352 90.7578125 C42.05786394 102.82748449 42.04078599 114.8971387 42.01977539 126.96679688 C38.47905388 128.82079224 34.9369607 130.67213633 31.39355469 132.52099609 C30.18744172 133.15079548 28.98171121 133.78132785 27.77636719 134.41259766 C26.04730497 135.31799234 24.31676577 136.22056461 22.58618164 137.12304688 C21.54405518 137.66767578 20.50192871 138.21230469 19.42822266 138.7734375 C17.01977539 139.96679688 17.01977539 139.96679688 16.01977539 139.96679688 C16.05610077 138.7576059 16.09242615 137.54841492 16.12985229 136.30258179 C16.45904934 124.8582518 16.67021193 113.41688322 16.76849174 101.96817589 C16.82274108 96.08245807 16.91722499 90.20335345 17.10668945 84.3203125 C19.32373549 59.96186206 19.32373549 59.96186206 12.86462402 37.38830566 C7.44984686 31.76183713 0.806707 28.03958687 -6.98022461 26.96679688 C-10.99703208 27.67286072 -13.85935221 29.3064403 -17.21459961 31.56835938 C-18.32254883 32.303125 -18.32254883 32.303125 -19.45288086 33.05273438 C-20.2044043 33.560625 -20.95592773 34.06851563 -21.73022461 34.59179688 C-23.24312941 35.60887573 -24.75863136 36.62210543 -26.27709961 37.63085938 C-26.94064453 38.07896973 -27.60418945 38.52708008 -28.2878418 38.98876953 C-29.98022461 39.96679688 -29.98022461 39.96679688 -31.98022461 39.96679688 C-31.98022461 72.96679688 -31.98022461 105.96679688 -31.98022461 139.96679688 C-41.17261276 136.90266749 -49.49001849 131.63641024 -57.98022461 126.96679688 C-57.98022461 92.97679687 -57.98022461 58.98679687 -57.98022461 23.96679688 C-49.73022461 19.34679687 -41.48022461 14.72679687 -32.98022461 9.96679688 C-25.08534361 4.96521034 -25.08534361 4.96521034 -17.34545898 -0.26757812 C-10.36721758 -4.67183845 -7.00745217 -4.22382484 0 0 Z " fill="#B3B3B3" transform="translate(1333.980224609375,44.033203125)"/>
<path d="M0 0 C2.17606455 1.22520564 4.36274535 2.43170921 6.55859375 3.62109375 C8.85181359 4.89277648 11.14477954 6.16491716 13.4375 7.4375 C14.57509766 8.06720703 15.71269531 8.69691406 16.88476562 9.34570312 C18.01462891 9.97283203 19.14449219 10.59996094 20.30859375 11.24609375 C21.30689209 11.79966553 22.30519043 12.3532373 23.33374023 12.92358398 C24.13843246 13.4187426 24.13843246 13.4187426 24.9593811 13.92390442 C27.10573625 15.13150387 27.10573625 15.13150387 30.04818726 15.97685242 C33.98007809 17.53544682 36.18813667 18.80824225 39 22 C41.28449037 29.36635397 40.38858595 37.61082618 40.171875 45.21484375 C40.14948186 47.51407947 40.1324058 49.81337262 40.12042236 52.11268616 C40.0746926 58.15259043 39.95690451 64.18900853 39.82397461 70.22753906 C39.7010177 76.39405145 39.64636974 82.56112965 39.5859375 88.72851562 C39.45739894 100.82053877 39.25271012 112.90997907 39 125 C35.39801864 126.98316344 31.79305369 128.96083989 28.1875 130.9375 C27.16333984 131.50146484 26.13917969 132.06542969 25.08398438 132.64648438 C24.10107422 133.18466797 23.11816406 133.72285156 22.10546875 134.27734375 C21.19949951 134.77484131 20.29353027 135.27233887 19.36010742 135.78491211 C17 137 17 137 14 138 C14.03854599 136.79080902 14.07709198 135.58161804 14.11680603 134.33578491 C14.46634882 122.89155544 14.69245804 111.45050687 14.80052853 100.00137901 C14.85998274 94.11534348 14.96150265 88.23655855 15.16235352 82.35351562 C17.44138122 57.92411168 17.44138122 57.92411168 10.72735596 35.42150879 C5.14087847 29.91611102 -2.07764897 25.77391655 -10 25 C-12.38190535 25.60752251 -12.38190535 25.60752251 -15 27 C-15.7059131 27.30574007 -16.41182619 27.61148014 -17.13913059 27.92648506 C-27.83503279 32.66813934 -27.83503279 32.66813934 -35.08773422 41.35816956 C-36.75018492 48.08746986 -36.3295941 54.95629068 -36.07421875 61.828125 C-36.06119876 64.03054522 -36.05659885 66.23302978 -36.06001282 68.43548584 C-36.04655634 74.19926582 -35.91970111 79.95503068 -35.76818848 85.71661377 C-35.63363688 91.60869128 -35.60768233 97.50117162 -35.57226562 103.39453125 C-35.48707827 114.93262033 -35.2819341 126.46515737 -35 138 C-37.48049079 136.77345057 -39.9593797 135.54382293 -42.4375 134.3125 C-43.46907227 133.80299805 -43.46907227 133.80299805 -44.52148438 133.28320312 C-49.78264061 130.66486025 -54.84934683 127.86147398 -60 125 C-60 91.01 -60 57.02 -60 22 C-50.76 16.72 -41.52 11.44 -32 6 C-23.81149135 0.78490566 -23.81149135 0.78490566 -15.68359375 -4.5234375 C-9.41852444 -7.43919348 -5.23128558 -3.47283759 0 0 Z " fill="#B3B3B3" transform="translate(1099,46)"/>
<path d="M0 0 C10.61131128 2.17219784 22.16106972 8.46204086 30 16 C33.53869688 22.29193019 33.42616898 28.08525618 33.38818359 35.18994141 C33.39344055 36.40212845 33.39869751 37.61431549 33.40411377 38.86323547 C33.41501982 42.17110197 33.41251436 45.47840209 33.40297651 48.78623629 C33.39535262 52.25523389 33.40243276 55.72420818 33.40713501 59.19320679 C33.41258319 65.01524169 33.40542414 70.83716218 33.39111328 76.65917969 C33.37477313 83.38431213 33.38008879 90.10917189 33.3965925 96.83429778 C33.41021587 102.61793238 33.41212335 108.40148501 33.40427649 114.18513048 C33.39960659 117.63540452 33.39895651 121.08555045 33.40888596 124.53581619 C33.41917851 128.38026754 33.4049043 132.22441434 33.38818359 136.06884766 C33.39425629 137.20871628 33.40032898 138.3485849 33.40658569 139.522995 C33.39812622 140.57152145 33.38966675 141.62004791 33.38095093 142.7003479 C33.37981985 143.60844019 33.37868877 144.51653248 33.37752342 145.45214272 C32.77278716 149.53343037 30.93140565 152.17817148 27.875 154.875 C22.30062349 157.05627776 17.91538488 155.78017966 12.5859375 153.609375 C-3.55897894 146.16892031 -3.55897894 146.16892031 -7.07410622 138.72555447 C-8.05319998 135.84339516 -8.25641888 133.65248553 -8.26742554 130.61769104 C-8.27595551 129.55089111 -8.28448547 128.48409119 -8.29327393 127.38496399 C-8.29236755 126.22482285 -8.29146118 125.0646817 -8.29052734 123.86938477 C-8.29724457 122.63958893 -8.30396179 121.40979309 -8.31088257 120.14273071 C-8.32661044 116.77695311 -8.33323663 113.41142227 -8.33451414 110.04562497 C-8.3359377 107.94111596 -8.34021111 105.83663266 -8.34550858 103.73213005 C-8.36399768 96.3854496 -8.3721804 89.03884162 -8.37060547 81.69213867 C-8.36940365 74.85114965 -8.39051654 68.01047592 -8.4220928 61.16956669 C-8.44826543 55.28915094 -8.45897239 49.40883813 -8.45769465 43.5283646 C-8.4571854 40.01927559 -8.46284815 36.51046705 -8.48405075 33.00143623 C-8.50705577 29.08750259 -8.49790613 25.17399998 -8.48583984 21.26000977 C-8.50269836 19.5228344 -8.50269836 19.5228344 -8.51989746 17.75056458 C-8.4714468 11.57296018 -8.27432308 7.63521963 -4 3 C-1.75 2.125 -1.75 2.125 0 2 C0 1.34 0 0.68 0 0 Z " fill="#FE3030" transform="translate(229,42)"/>
<path d="M0 0 C3.58564051 0.57964104 6.34834281 1.52034433 9.52734375 3.265625 C10.39174072 3.73726074 11.2561377 4.20889648 12.14672852 4.69482422 C13.5281604 5.46463623 13.5281604 5.46463623 14.9375 6.25 C15.89519287 6.77996582 16.85288574 7.30993164 17.83959961 7.85595703 C20.89977726 9.55896472 23.95099907 11.27706944 27 13 C28.53382324 13.86286621 28.53382324 13.86286621 30.09863281 14.74316406 C33.09593166 16.43803678 36.08106283 18.152403 39.0625 19.875 C40.44393188 20.65858887 40.44393188 20.65858887 41.85327148 21.45800781 C47.81677721 24.95084684 52.72282369 28.16847108 55 35 C55.09811644 36.37789103 55.1433798 37.75994126 55.15390015 39.14128113 C55.16250061 39.9836734 55.17110107 40.82606567 55.17996216 41.69398499 C55.18635208 43.07559059 55.18635208 43.07559059 55.19287109 44.48510742 C55.20513733 45.94415497 55.20513733 45.94415497 55.21765137 47.43267822 C55.24249594 50.65693548 55.25902002 53.8811487 55.2734375 57.10546875 C55.27876118 58.20702112 55.28408485 59.30857349 55.28956985 60.44350624 C55.31629874 66.27523732 55.33567357 72.10694702 55.35009766 77.9387207 C55.36673497 83.95676286 55.41150643 89.9742563 55.4624691 95.99209118 C55.49615712 100.62387202 55.50767689 105.25552293 55.51332474 109.88741493 C55.52003398 112.1053416 55.53524743 114.32325982 55.55921555 116.54106712 C55.59089902 119.65047013 55.5908985 122.7583973 55.58349609 125.86791992 C55.59990143 126.77886917 55.61630676 127.68981842 55.63320923 128.62837219 C55.57269514 134.85905252 54.14369032 139.2545387 50 144 C47.4605128 145.94524689 44.85143466 147.43349982 42 148.875 C41.30132812 149.25140625 40.60265625 149.6278125 39.8828125 150.015625 C33.3300834 153.50217143 27.58215956 156.30726889 20 155 C15.72675797 152.09055862 14.53492286 149.25093205 13.3815918 144.3046875 C12.7032602 140.20779035 12.79231186 136.1407678 12.875 132 C12.88402344 131.12988281 12.89304688 130.25976562 12.90234375 129.36328125 C12.92565381 127.2420658 12.96151421 125.12099438 13 123 C12.16597656 123.37253906 11.33195313 123.74507813 10.47265625 124.12890625 C1.2451637 128.00804687 -4.24737674 128.80853237 -13.5625 125.4375 C-14.696875 124.963125 -15.83125 124.48875 -17 124 C-18.19236948 126.38473896 -18.15513183 127.95227215 -18.2109375 130.61328125 C-18.23929688 131.53173828 -18.26765625 132.45019531 -18.296875 133.39648438 C-18.34863938 135.32858982 -18.39300369 137.26090878 -18.4296875 139.19335938 C-18.63809148 145.40640293 -19.3848381 149.08308865 -23.625 153.8125 C-27.58168275 155.79084138 -30.76961937 155.89510749 -35 155 C-45.76809632 150.95139864 -55.94784088 145.69694688 -61 135 C-61.56283691 135.35191406 -62.12567383 135.70382813 -62.70556641 136.06640625 C-68.23072526 139.51639336 -73.77200799 142.93894481 -79.32421875 146.34521484 C-81.60630646 147.75652784 -83.86837008 149.19310791 -86.125 150.64453125 C-93.092463 155.03320168 -98.71131981 157.77261325 -107 156 C-115.40343853 152.44608973 -123.28345287 147.6341014 -131.125 143 C-132.63513672 142.11441406 -132.63513672 142.11441406 -134.17578125 141.2109375 C-136.16259554 140.04403752 -138.14735932 138.873638 -140.12988281 137.69946289 C-142.03709448 136.57015867 -143.94789803 135.44689778 -145.86230469 134.32983398 C-146.75079102 133.80719971 -147.63927734 133.28456543 -148.5546875 132.74609375 C-149.73393799 132.05664673 -149.73393799 132.05664673 -150.93701172 131.35327148 C-156.44350374 127.74114305 -158.53789277 123.36341355 -160 117 C-160.27123967 113.9340759 -160.28383772 110.8875717 -160.2746582 107.81103516 C-160.27976913 106.91738754 -160.28488007 106.02373993 -160.29014587 105.10301208 C-160.30398342 102.16495971 -160.30308943 99.22714348 -160.30078125 96.2890625 C-160.30467151 94.23554396 -160.30900687 92.18202623 -160.31376648 90.12850952 C-160.32121625 85.82978708 -160.32094651 81.53114678 -160.31567383 77.23242188 C-160.30988234 71.73934352 -160.32680866 66.24660268 -160.3500185 60.75358009 C-160.36479174 56.51378431 -160.36562263 52.27406913 -160.36250877 48.03425217 C-160.36302023 46.00977282 -160.36822473 43.98528874 -160.37832069 41.9608345 C-160.39073683 39.12292159 -160.38386237 36.2856574 -160.37231445 33.44775391 C-160.37995819 32.62149002 -160.38760193 31.79522614 -160.39547729 30.94392395 C-160.33412581 24.07982489 -159.33476644 16.9871211 -154.3125 11.9375 C-150.43584061 8.97348828 -146.07767558 6.78789962 -141.75 4.5625 C-141.04012939 4.19568115 -140.33025879 3.8288623 -139.59887695 3.45092773 C-134.36780037 0.87739988 -134.36780037 0.87739988 -131 2 C-137.6 5.63 -144.2 9.26 -151 13 C-151 46.33 -151 79.66 -151 114 C-137.14 121.92 -137.14 121.92 -123 130 C-111.4375 137.375 -111.4375 137.375 -106.68359375 140.5234375 C-103.73524827 141.89426071 -102.56439518 142.17058632 -99.42407227 141.22143555 C-96.47071736 139.65347355 -93.76274852 137.88317866 -91 136 C-88.8908519 134.7132527 -86.77742428 133.43349846 -84.66015625 132.16015625 C-82.45916044 130.79713624 -80.25995761 129.43121697 -78.0625 128.0625 C-69.77724488 122.91300081 -61.45256715 117.86992117 -53 113 C-53.20625 114.00417969 -53.4125 115.00835937 -53.625 116.04296875 C-54.18569229 120.72633081 -54.3774149 124.79134578 -52 129 C-45.0021058 134.92282653 -36.232124 138.20718894 -28 142 C-27.67 128.47 -27.34 114.94 -27 101 C-11 109 -11 109 -4 113 C-1.84506999 113.04602629 -1.84506999 113.04602629 0 112 C0.78076904 111.62931396 1.56153809 111.25862793 2.3659668 110.87670898 C3.21843994 110.42110596 4.07091309 109.96550293 4.94921875 109.49609375 C5.87927734 109.00302734 6.80933594 108.50996094 7.76757812 108.00195312 C8.73115234 107.48568359 9.69472656 106.96941406 10.6875 106.4375 C12.60713744 105.41360878 14.52766164 104.39137773 16.44921875 103.37109375 C17.29830811 102.91661865 18.14739746 102.46214355 19.0222168 101.99389648 C21 101 21 101 22 101 C22.33 114.53 22.66 128.06 23 142 C30.15268602 138.0553737 30.15268602 138.0553737 37.30029297 134.1015625 C38.18861816 133.61429688 39.07694336 133.12703125 39.9921875 132.625 C40.90339355 132.12226563 41.81459961 131.61953125 42.75341797 131.1015625 C45 130 45 130 47 130 C47 96.01 47 62.02 47 27 C45.35 26.34 43.7 25.68 42 25 C40.19848416 24.05954766 38.41280792 23.08837437 36.640625 22.09375 C35.61445068 21.51906982 34.58827637 20.94438965 33.53100586 20.35229492 C32.44827393 19.7410376 31.36554199 19.12978027 30.25 18.5 C29.14213135 17.87649658 28.0342627 17.25299316 26.89282227 16.6105957 C20.21747498 12.84366491 13.55733789 9.05124112 6.9375 5.1875 C6.22432617 4.77371094 5.51115234 4.35992187 4.77636719 3.93359375 C3.16643661 2.98533408 1.57990128 1.99748925 0 1 C0 0.67 0 0.34 0 0 Z " fill="#000000" transform="translate(161,42)"/>
<path d="M0 0 C-1.0209375 0.55945312 -2.041875 1.11890625 -3.09375 1.6953125 C-16.19258126 8.90678779 -29.12378873 16.39874708 -42 24 C-42.86454803 24.32700897 -43.72909607 24.65401794 -44.61984253 24.99093628 C-47.12586464 26.70349653 -47.12586464 26.70349653 -47.45149899 28.8845644 C-47.61928567 31.47300105 -47.61756358 34.01850297 -47.56762695 36.61206055 C-47.56835709 37.59760925 -47.56908722 38.58315796 -47.56983948 39.59857178 C-47.56635116 42.86184394 -47.52742992 46.12369542 -47.48828125 49.38671875 C-47.47895759 51.64686808 -47.47183937 53.90702751 -47.46684265 56.16719055 C-47.44773792 62.12032903 -47.39860635 68.07285903 -47.34332275 74.02575684 C-47.29220566 80.09846769 -47.26934469 86.17127672 -47.24414062 92.24414062 C-47.19049146 104.16307099 -47.10252636 116.08138974 -47 128 C-39.08 132.29 -31.16 136.58 -23 141 C-22.67 127.47 -22.34 113.94 -22 100 C-6 108 -6 108 1 112 C3.15493001 112.04602629 3.15493001 112.04602629 5 111 C5.78076904 110.62931396 6.56153809 110.25862793 7.3659668 109.87670898 C8.21843994 109.42110596 9.07091309 108.96550293 9.94921875 108.49609375 C10.87927734 108.00302734 11.80933594 107.50996094 12.76757812 107.00195312 C13.73115234 106.48568359 14.69472656 105.96941406 15.6875 105.4375 C17.60713744 104.41360878 19.52766164 103.39137773 21.44921875 102.37109375 C22.29830811 101.91661865 23.14739746 101.46214355 24.0222168 100.99389648 C26 100 26 100 27 100 C27.495 120.295 27.495 120.295 28 141 C35.15268602 137.0553737 35.15268602 137.0553737 42.30029297 133.1015625 C43.18861816 132.61429688 44.07694336 132.12703125 44.9921875 131.625 C45.90339355 131.12226563 46.81459961 130.61953125 47.75341797 130.1015625 C50 129 50 129 52 129 C52 124.05 52 119.1 52 114 C55.6908142 115.47632568 58.85863167 116.94281954 62.2890625 118.87109375 C63.30403809 119.44118164 64.31901367 120.01126953 65.36474609 120.59863281 C66.44062988 121.20545898 67.51651367 121.81228516 68.625 122.4375 C69.73568848 123.05334961 70.84637695 123.66919922 71.99072266 124.30371094 C77.26798572 127.24588173 82.45149378 130.23641507 87.484375 133.58203125 C88.31630371 134.11836182 89.14823242 134.65469238 90.00537109 135.20727539 C91.54401858 136.20899737 93.05974294 137.24718961 94.54541016 138.32592773 C96.78745588 139.76084741 98.36381437 140.59720143 101 141 C105.11065577 139.69564201 108.435884 137.38646948 112 135 C114.12168345 133.71456194 116.2467961 132.43476985 118.375 131.16015625 C120.58511907 129.7971622 122.79343651 128.43124273 125 127.0625 C126.09828125 126.38509766 127.1965625 125.70769531 128.328125 125.00976562 C134.55392593 121.16289929 140.73408739 117.25907762 146.85546875 113.24780273 C149 112 149 112 151 112 C151 78.67 151 45.34 151 11 C149.02 10.34 147.04 9.68 145 9 C143.03369141 8.03857422 143.03369141 8.03857422 141.3515625 7.0546875 C140.73925781 6.70019531 140.12695312 6.34570312 139.49609375 5.98046875 C138.87863281 5.61566406 138.26117187 5.25085937 137.625 4.875 C136.98433594 4.50246094 136.34367188 4.12992188 135.68359375 3.74609375 C134.11951523 2.83565998 132.55934466 1.91851809 131 1 C134 0 134 0 135.82177734 0.64916992 C136.4864502 1.00599854 137.15112305 1.36282715 137.8359375 1.73046875 C138.93808594 2.31731445 138.93808594 2.31731445 140.0625 2.91601562 C140.825625 3.33560547 141.58875 3.75519531 142.375 4.1875 C143.13039063 4.58775391 143.88578125 4.98800781 144.6640625 5.40039062 C151.22296907 8.93784286 156.1278222 11.81952397 159 19 C159.42362586 22.22783679 159.41025524 25.42188364 159.38818359 28.67382812 C159.39606903 30.10909096 159.39606903 30.10909096 159.40411377 31.573349 C159.41728301 34.72615029 159.4085864 37.87844386 159.3984375 41.03125 C159.40045911 43.22790626 159.40337128 45.42456186 159.40713501 47.62121582 C159.4115542 52.22101238 159.40514019 56.82063396 159.39111328 61.42041016 C159.37402181 67.31177957 159.38386513 73.20273895 159.40183067 79.09409332 C159.41267933 83.62887655 159.40921716 88.16356282 159.4014473 92.698349 C159.39944829 94.87043812 159.40189402 97.04253608 159.40888596 99.21461487 C159.41651806 102.25203722 159.40487114 105.28879865 159.38818359 108.32617188 C159.39425629 109.22089706 159.40032898 110.11562225 159.40658569 111.03746033 C159.34751762 116.8509191 158.48694954 121.17799577 154.50317383 125.69848633 C149.8348833 129.53216671 144.90666169 132.65659121 139.6875 135.6875 C137.92010829 136.72968121 136.15319193 137.77266891 134.38671875 138.81640625 C133.04939697 139.60362061 133.04939697 139.60362061 131.68505859 140.40673828 C126.66578504 143.38507791 121.70301522 146.45606526 116.73706055 149.5222168 C116.04008057 149.95058838 115.34310059 150.37895996 114.625 150.8203125 C114.01914062 151.19430176 113.41328125 151.56829102 112.7890625 151.95361328 C107.06982452 155.29868069 102.61973739 155.91631552 96 155 C91.70297434 153.54196588 87.89037922 151.30090282 84 149 C83.13181641 148.49049805 82.26363281 147.98099609 81.36914062 147.45605469 C77.39633652 145.12106768 73.42650097 142.78220565 69.47729492 140.4074707 C68.09441284 139.57735474 68.09441284 139.57735474 66.68359375 138.73046875 C65.85400146 138.22926514 65.02440918 137.72806152 64.16967773 137.21166992 C61.9327728 135.87399985 61.9327728 135.87399985 59 135 C58.87625 135.845625 58.7525 136.69125 58.625 137.5625 C54.85054204 145.54693031 44.87177277 149.49456776 37.12109375 152.890625 C32.93434656 154.37878045 29.34780589 155.18906591 25 154 C20.72675797 151.09055862 19.53492286 148.25093205 18.3815918 143.3046875 C17.7032602 139.20779035 17.79231186 135.1407678 17.875 131 C17.88402344 130.12988281 17.89304687 129.25976562 17.90234375 128.36328125 C17.92565381 126.2420658 17.96151421 124.12099438 18 122 C17.16597656 122.37253906 16.33195313 122.74507813 15.47265625 123.12890625 C6.2451637 127.00804687 0.75262326 127.80853237 -8.5625 124.4375 C-9.696875 123.963125 -10.83125 123.48875 -12 123 C-13.19236948 125.38473896 -13.15513183 126.95227215 -13.2109375 129.61328125 C-13.25347656 130.9909668 -13.25347656 130.9909668 -13.296875 132.39648438 C-13.34863938 134.32858982 -13.39300369 136.26090878 -13.4296875 138.19335938 C-13.63809148 144.40640293 -14.3848381 148.08308865 -18.625 152.8125 C-22.58168275 154.79084138 -25.76961937 154.89510749 -30 154 C-38.04397142 150.97561828 -50.07003315 146.27004719 -53.90505409 138.06320953 C-55.81795299 132.45359634 -56.43175407 127.48973428 -56.38818359 121.58398438 C-56.39344055 120.69004471 -56.39869751 119.79610504 -56.40411377 118.87507629 C-56.41721591 115.94778479 -56.40861054 113.02104612 -56.3984375 110.09375 C-56.40046105 108.04308977 -56.40337482 105.99243024 -56.40713501 103.94177246 C-56.41154512 99.65495924 -56.40516964 95.36833422 -56.39111328 91.08154297 C-56.37402232 85.60419481 -56.38387054 80.12728775 -56.40183067 74.64995575 C-56.412704 70.41872879 -56.40920589 66.18760531 -56.4014473 61.95637512 C-56.3994551 59.9374842 -56.40186987 57.91858369 -56.40888596 55.89970398 C-56.41655902 53.07155696 -56.40481467 50.24411084 -56.38818359 47.41601562 C-56.39425629 46.59289383 -56.40032898 45.76977203 -56.40658569 44.92170715 C-56.34044884 38.80889004 -55.6181523 32.12849363 -51.56168175 27.28131866 C-46.36214246 22.3699664 -39.62269031 19.10436327 -33.4375 15.625 C-32.26972002 14.96144461 -31.10232254 14.29721565 -29.93530273 13.63232422 C-27.65482352 12.33528263 -25.37272746 11.04107885 -23.08886719 9.75 C-20.48146158 8.27277242 -17.88208756 6.78351217 -15.2890625 5.28125 C-14.64138916 4.90661621 -13.99371582 4.53198242 -13.32641602 4.14599609 C-12.74432373 3.80906738 -12.16223145 3.47213867 -11.5625 3.125 C-3.90617849 -1.3020595 -3.90617849 -1.3020595 0 0 Z " fill="#000000" transform="translate(558,43)"/>
<path d="M0 0 C0.99 0.33 1.98 0.66 3 1 C2.46507746 1.19471295 1.93015491 1.38942591 1.3790226 1.59003925 C-4.79626713 4.02591749 -10.63996313 6.86977184 -15 12 C-18.32541213 20.20890667 -17.23140412 29.77746738 -16.9765625 38.44921875 C-16.96541629 41.03422389 -16.9622305 43.61927452 -16.96664429 46.20429993 C-16.95795334 52.29090802 -16.86963204 58.37147744 -16.74172533 64.45659047 C-16.60050349 71.38999414 -16.56247723 78.32280605 -16.53258252 85.25744379 C-16.46886862 99.5071037 -16.27729636 113.75297442 -16 128 C-15.22268021 128.30638397 -14.44536041 128.61276794 -13.64448547 128.92843628 C-11.11904622 129.95176165 -8.76122578 131.10628836 -6.35546875 132.3828125 C-5.51435547 132.82753906 -4.67324219 133.27226562 -3.80664062 133.73046875 C-2.94232422 134.19066406 -2.07800781 134.65085938 -1.1875 135.125 C0.13797852 135.82689453 0.13797852 135.82689453 1.49023438 136.54296875 C3.66135525 137.69307603 5.8312226 138.84548146 8 140 C7.88366211 139.05382812 7.76732422 138.10765625 7.64746094 137.1328125 C5.24459958 115.24925455 5.24459958 115.24925455 9 106 C15.16927718 98.54814654 24.57313929 95.16370345 33.32519531 91.59082031 C38.78449335 89.31199286 43.70231948 86.15847492 48.6875 83 C50.29269204 82.01611771 51.90046654 81.03642618 53.51171875 80.0625 C54.16615967 79.66160156 54.82060059 79.26070313 55.49487305 78.84765625 C57 78 57 78 58 78 C58.33 98.46 58.66 118.92 59 140 C66.26 136.04 73.52 132.08 81 128 C81.66 128 82.32 128 83 128 C83.29066915 113.0659028 83.47707625 98.13316213 83.54146767 83.19636822 C83.57376843 76.25945118 83.63937395 69.32591794 83.78515625 62.39038086 C83.92587286 55.69128866 83.9714137 48.99760572 83.95997238 42.29676247 C83.97097055 39.74609233 84.01341062 37.19535081 84.08833694 34.64575768 C84.99581615 21.47009554 84.99581615 21.47009554 80.138237 9.8093605 C75.29795205 5.79672796 69.88432629 3.1419074 64 1 C67 0 67 0 70.07421875 1.40625 C71.28648551 2.09045873 72.49058711 2.78927375 73.6875 3.5 C74.31237305 3.86585205 74.93724609 4.2317041 75.58105469 4.60864258 C81.30697607 8.04226599 87.10251276 11.61752274 90.4375 17.5625 C91.86416576 23.74471828 92.14838144 29.58563564 92.14526367 35.90161133 C92.14862228 36.88289505 92.1519809 37.86417877 92.15544128 38.87519836 C92.16491991 42.1108223 92.16689287 45.34639431 92.16796875 48.58203125 C92.17118356 50.83876059 92.1745478 53.09548972 92.17805481 55.35221863 C92.18403841 60.08060184 92.18589551 64.80896679 92.18530273 69.53735352 C92.18520118 75.58303246 92.19885043 81.62859379 92.21607494 87.67424488 C92.2272178 92.33522576 92.22922123 96.99617842 92.22869301 101.65717125 C92.22986979 103.88539726 92.23427455 106.11362408 92.24202538 108.34183693 C92.25187099 111.46470904 92.2489291 114.58732852 92.24291992 117.71020508 C92.24853943 118.62219666 92.25415894 119.53418823 92.25994873 120.47381592 C92.22189565 128.29351791 91.83556033 136.2678831 86.25 142.23046875 C78.32148214 148.46591769 68.60214992 153.41866219 58.44921875 153.359375 C56 153 56 153 52.9375 150.625 C50.480216 147.29577652 49.87393203 145.69538083 49.79467773 141.64208984 C49.7647599 140.29091568 49.7647599 140.29091568 49.73423767 138.91244507 C49.71752518 137.93844757 49.70081268 136.96445007 49.68359375 135.9609375 C49.66281265 134.96494537 49.64203156 133.96895325 49.62062073 132.94277954 C49.55510958 129.75359146 49.49623296 126.56431942 49.4375 123.375 C49.39431627 121.21613707 49.35070203 119.0572827 49.30664062 116.8984375 C49.19942664 111.5990477 49.09766315 106.29957394 49 101 C48.31687744 101.37439209 47.63375488 101.74878418 46.92993164 102.13452148 C42.32244408 104.6545205 37.71088035 107.16119903 33.05859375 109.59765625 C31.51808572 110.41900184 29.97771916 111.24061284 28.4375 112.0625 C27.24930664 112.67448242 27.24930664 112.67448242 26.03710938 113.29882812 C24.90305664 113.91081055 24.90305664 113.91081055 23.74609375 114.53515625 C23.07247803 114.889729 22.3988623 115.24430176 21.70483398 115.60961914 C19.38648008 117.50035743 18.83089817 119.14380374 18 122 C17.70230507 124.70075693 17.70230507 124.70075693 17.7265625 127.52734375 C17.7059375 128.56697266 17.6853125 129.60660156 17.6640625 130.67773438 C17.63806859 132.84692606 17.61981071 135.01622455 17.609375 137.18554688 C17.4711902 143.3846707 17.23244226 147.3157802 13 152 C9.07442064 153.96278968 5.2630902 153.72529931 1 153 C-7.68895046 149.86827008 -18.78212315 144.85068518 -23.375 136.5 C-24.92126353 130.31494588 -25.14839235 124.4364581 -25.14526367 118.09838867 C-25.14862228 117.11710495 -25.1519809 116.13582123 -25.15544128 115.12480164 C-25.16491991 111.8891777 -25.16689287 108.65360569 -25.16796875 105.41796875 C-25.17118356 103.16123941 -25.1745478 100.90451028 -25.17805481 98.64778137 C-25.18403841 93.91939816 -25.18589551 89.19103321 -25.18530273 84.46264648 C-25.18520118 78.41696754 -25.19885043 72.37140621 -25.21607494 66.32575512 C-25.2272178 61.66477424 -25.22922123 57.00382158 -25.22869301 52.34282875 C-25.22986979 50.11460274 -25.23427455 47.88637592 -25.24202538 45.65816307 C-25.25187099 42.53529096 -25.2489291 39.41267148 -25.24291992 36.28979492 C-25.24853943 35.37780334 -25.25415894 34.46581177 -25.25994873 33.52618408 C-25.2218612 25.69940283 -24.83871914 17.79867006 -19.25390625 11.8359375 C-13.46953824 7.12423393 -6.65900071 3.32950036 0 0 Z " fill="#000000" transform="translate(408,45)"/>
<path d="M0 0 C0.66 0.33 1.32 0.66 2 1 C-5.56047519 5.59580021 -13.12281962 10.18848886 -20.68835449 14.7759552 C-24.17217948 16.88899338 -27.65242749 19.00769901 -31.12890625 21.1328125 C-32.46085412 21.94284545 -33.79287574 22.75275716 -35.125 23.5625 C-36.24132812 24.24441406 -37.35765625 24.92632812 -38.5078125 25.62890625 C-41 27 -41 27 -43 27 C-43 56.04 -43 85.08 -43 115 C-41.35 115.66 -39.7 116.32 -38 117 C-35.85626879 118.1774596 -33.73294715 119.3924281 -31.625 120.6328125 C-31.01922119 120.98834198 -30.41344238 121.34387146 -29.78930664 121.71017456 C-28.50750373 122.46335508 -27.22667849 123.21820165 -25.94677734 123.97460938 C-24.03566034 125.10392757 -22.12166462 126.22821855 -20.20703125 127.3515625 C-19.27283356 127.90156418 -19.27283356 127.90156418 -18.31976318 128.462677 C-17.06635622 129.20025613 -15.81167601 129.93567589 -14.5557251 130.66891479 C-11.43884959 132.50145296 -8.39004568 134.38648851 -5.40136719 136.42236328 C-4.82539795 136.80552704 -4.24942871 137.1886908 -3.65600586 137.58346558 C-2.0841287 138.63630991 -0.52919958 139.71433259 1.02441406 140.79394531 C4.04004536 142.3519481 4.04004536 142.3519481 7.52807617 141.15380859 C9.92379582 140.01703536 12.11235316 138.95833267 14.28515625 137.4609375 C17.48044489 135.32960746 20.74036391 133.38105372 24.07543945 131.47680664 C25.49492603 130.65228693 26.90114817 129.80453861 28.29370117 128.93530273 C32.20814789 126.50170991 35.98334154 124.55429413 40.3046875 122.93359375 C45.63947783 120.7641808 50.50284786 118.74532522 54 114 C57.10200036 104.80615362 56.92289792 94.22413544 54 85 C50.81590623 80.10664036 46.2085876 77.86079364 40.90136719 75.79248047 C37.93633211 74.55666847 35.55422213 72.94550564 33 71 C33 70.34 33 69.68 33 69 C39.93 65.04 46.86 61.08 54 57 C54 47.43 54 37.86 54 28 C52.17597656 26.96101563 50.35195313 25.92203125 48.47265625 24.8515625 C35.26292828 17.32167203 22.07159993 9.7682651 9 2 C12 1 12 1 14.01098633 1.78173828 C14.77693115 2.20696777 15.54287598 2.63219727 16.33203125 3.0703125 C17.20287354 3.54839355 18.07371582 4.02647461 18.97094727 4.51904297 C19.90865967 5.04900879 20.84637207 5.57897461 21.8125 6.125 C22.77921631 6.66398926 23.74593262 7.20297852 24.74194336 7.75830078 C27.83560405 9.49234943 30.91829997 11.24479593 34 13 C35.53817383 13.8672168 35.53817383 13.8672168 37.10742188 14.75195312 C40.10139529 16.44453083 43.08372074 18.15584608 46.0625 19.875 C46.98329346 20.39723145 47.90408691 20.91946289 48.8527832 21.45751953 C54.51714054 24.77558404 59.03750818 27.85144134 61.92578125 33.95703125 C64.02659896 44.03671217 65.47919913 59.62730362 59.9296875 68.76171875 C57.43029009 72.00779149 54.61860138 74.13900501 51 76 C51.54081975 79.79405854 52.98836854 81.15349396 55.9375 83.5 C60.05731975 86.78987421 61.6220148 89.01136451 62.61328125 94.2265625 C65.08359475 118.33083366 65.08359475 118.33083366 58.8671875 126.9609375 C56.0014348 130.25436845 52.60549691 132.34590173 48.8125 134.4375 C47.31635697 135.28897592 45.82026699 136.14054505 44.32421875 136.9921875 C43.49325684 137.45979492 42.66229492 137.92740234 41.80615234 138.40917969 C38.59258712 140.23096419 35.3987742 142.0856944 32.20703125 143.9453125 C30.43476966 144.97604959 28.66229592 146.00642079 26.88973999 147.03665161 C25.71602754 147.718934 24.54254406 148.40161042 23.36929321 149.08468628 C21.70878024 150.05018157 20.0458407 151.01149982 18.3828125 151.97265625 C16.93479248 152.81195679 16.93479248 152.81195679 15.45751953 153.66821289 C10.00841448 156.62120991 5.05377118 157.13122565 -1 156 C-6.42217694 153.83474494 -11.38299581 150.66272684 -16.34765625 147.62255859 C-19.23791069 145.85445928 -22.14881708 144.12372674 -25.0625 142.39453125 C-47.84703734 128.77170856 -47.84703734 128.77170856 -51 121 C-51.28983825 118.11007228 -51.43090652 115.43751209 -51.41992188 112.55126953 C-51.42839142 111.72443665 -51.43686096 110.89760376 -51.44558716 110.04571533 C-51.46890019 107.3245893 -51.46998063 104.60403066 -51.46875 101.8828125 C-51.47585536 99.98240942 -51.4835549 98.08200849 -51.49182129 96.18161011 C-51.50525327 92.20223017 -51.50684078 88.22304858 -51.50097656 84.24365234 C-51.49508373 79.15712177 -51.52566079 74.07154675 -51.56609344 68.98520088 C-51.59200929 65.06109536 -51.5948443 61.13721869 -51.59120178 57.2130394 C-51.5928896 55.3384346 -51.60249942 53.46381885 -51.62034607 51.58929825 C-51.64261189 48.9613981 -51.63279618 46.33541605 -51.61523438 43.70751953 C-51.62849762 42.94154449 -51.64176086 42.17556946 -51.65542603 41.38638306 C-51.56523382 35.54503994 -49.68699804 31.5218357 -46 27 C-43.75963042 25.22613411 -41.82420918 23.88146549 -39.375 22.5 C-38.71346924 22.1069165 -38.05193848 21.71383301 -37.37036133 21.30883789 C-35.8366207 20.40008679 -34.29787986 19.49974424 -32.75537109 18.60595703 C-29.5041401 16.71099004 -26.27725755 14.77649481 -23.05078125 12.83984375 C-20.59726048 11.37087683 -18.14269489 9.90366697 -15.6875 8.4375 C-15.08242615 8.0760791 -14.47735229 7.7146582 -13.85394287 7.34228516 C-12.1168563 6.30687858 -10.3768397 5.27639254 -8.63671875 4.24609375 C-7.62311279 3.64466553 -6.60950684 3.0432373 -5.56518555 2.42358398 C-3 1 -3 1 0 0 Z " fill="#000000" transform="translate(318,42)"/>
<path d="M0 0 C3.63452282 1.45380913 6.53552391 2.79859391 9.828125 4.78515625 C10.70984375 5.31560547 11.5915625 5.84605469 12.5 6.39257812 C13.4075 6.94365234 14.315 7.49472656 15.25 8.0625 C16.17296875 8.61744141 17.0959375 9.17238281 18.046875 9.74414062 C24.8525916 13.8525916 24.8525916 13.8525916 26 15 C26.09611419 16.6575762 26.12187755 18.31926986 26.12025452 19.97962952 C26.12162918 21.0580159 26.12300385 22.13640228 26.12442017 23.24746704 C26.12082489 24.4407663 26.11722961 25.63406555 26.11352539 26.86352539 C26.11367142 28.11212845 26.11381744 29.36073151 26.1139679 30.64717102 C26.11338891 34.08090994 26.10835955 37.51458938 26.10139394 40.94831777 C26.09515998 44.53312459 26.09455657 48.11793213 26.09336853 51.70274353 C26.09025534 58.49550045 26.08204212 65.28824135 26.07201904 72.08099121 C26.06085753 79.81242494 26.05534736 87.54385942 26.05032361 95.27529919 C26.03985949 111.18354208 26.02226029 127.09176898 26 143 C16.49853812 141.09970762 8.41295298 134.8074017 0 130 C0 87.1 0 44.2 0 0 Z " fill="#B3B3B3" transform="translate(993,41)"/>
<path d="M0 0 C0.33 42.24 0.66 84.48 1 128 C8.92 132.29 16.84 136.58 25 141 C25.29903756 124.51707742 25.51809277 108.03955831 25.59327984 91.55436325 C25.63072569 83.89887352 25.70334351 76.24681713 25.8605957 68.59277344 C25.99767134 61.91635648 26.06689063 55.24315435 26.05671436 48.5652802 C26.05364608 45.03179683 26.08310977 41.50573355 26.194067 37.97383881 C27.20756346 23.48957302 27.20756346 23.48957302 22.03531265 10.59693909 C16.95666741 6.23204221 11.2484932 3.33194098 5 1 C8 0 8 0 11.58203125 1.6953125 C12.99819713 2.49465354 14.40816059 3.30505931 15.8125 4.125 C16.51181641 4.516875 17.21113281 4.90875 17.93164062 5.3125 C29.68834138 12.04318369 29.68834138 12.04318369 32.40036392 18.78565598 C33.67373934 23.48799352 33.41404864 28.3522126 33.38818359 33.18994141 C33.39344055 34.40212845 33.39869751 35.61431549 33.40411377 36.86323547 C33.41501982 40.17110197 33.41251436 43.47840209 33.40297651 46.78623629 C33.39535262 50.25523389 33.40243276 53.72420818 33.40713501 57.19320679 C33.41258319 63.01524169 33.40542414 68.83716218 33.39111328 74.65917969 C33.37477313 81.38431213 33.38008879 88.10917189 33.3965925 94.83429778 C33.41021587 100.61793238 33.41212335 106.40148501 33.40427649 112.18513048 C33.39960659 115.63540452 33.39895651 119.08555045 33.40888596 122.53581619 C33.41917851 126.38026754 33.4049043 130.22441434 33.38818359 134.06884766 C33.39425629 135.20871628 33.40032898 136.3485849 33.40658569 137.522995 C33.39812622 138.57152145 33.38966675 139.62004791 33.38095093 140.7003479 C33.37981985 141.60844019 33.37868877 142.51653248 33.37752342 143.45214272 C32.77278716 147.53343037 30.93140565 150.17817148 27.875 152.875 C22.30062349 155.05627776 17.91538488 153.78017966 12.5859375 151.609375 C-3.55897894 144.16892031 -3.55897894 144.16892031 -7.07410622 136.72555447 C-8.05319998 133.84339516 -8.25641888 131.65248553 -8.26742554 128.61769104 C-8.27595551 127.55089111 -8.28448547 126.48409119 -8.29327393 125.38496399 C-8.29236755 124.22482285 -8.29146118 123.0646817 -8.29052734 121.86938477 C-8.29724457 120.63958893 -8.30396179 119.40979309 -8.31088257 118.14273071 C-8.32661044 114.77695311 -8.33323663 111.41142227 -8.33451414 108.04562497 C-8.3359377 105.94111596 -8.34021111 103.83663266 -8.34550858 101.73213005 C-8.36399768 94.3854496 -8.3721804 87.03884162 -8.37060547 79.69213867 C-8.36940365 72.85114965 -8.39051654 66.01047592 -8.4220928 59.16956669 C-8.44826543 53.28915094 -8.45897239 47.40883813 -8.45769465 41.5283646 C-8.4571854 38.01927559 -8.46284815 34.51046705 -8.48405075 31.00143623 C-8.50705577 27.08750259 -8.49790613 23.17399998 -8.48583984 19.26000977 C-8.50269836 17.5228344 -8.50269836 17.5228344 -8.51989746 15.75056458 C-8.47133965 9.55929825 -8.25267902 5.66201107 -4 1 C-2 0 -2 0 0 0 Z " fill="#000000" transform="translate(229,44)"/>
<path d="M0 0 C4.42801735 1.57129783 8.35053766 4.22405871 12.36767578 6.62646484 C13.77146484 7.44050781 13.77146484 7.44050781 15.20361328 8.27099609 C16.08791016 8.79822266 16.97220703 9.32544922 17.88330078 9.86865234 C18.69573242 10.34931152 19.50816406 10.8299707 20.34521484 11.32519531 C20.93012695 11.79586426 21.51503906 12.2665332 22.11767578 12.75146484 C22.11767578 13.74146484 22.11767578 14.73146484 22.11767578 15.75146484 C19.18249977 17.4014687 16.24415104 19.04573916 13.30517578 20.68896484 C12.47179687 21.15753906 11.63841797 21.62611328 10.77978516 22.10888672 C9.97734375 22.55683594 9.17490234 23.00478516 8.34814453 23.46630859 C7.60975342 23.88001709 6.8713623 24.29372559 6.1105957 24.7199707 C4.11767578 25.75146484 4.11767578 25.75146484 1.11767578 26.75146484 C1.61267578 41.10646484 1.61267578 41.10646484 2.11767578 55.75146484 C8.9851132 51.80458923 8.9851132 51.80458923 15.84985352 47.85302734 C16.7000708 47.36576172 17.55028809 46.87849609 18.42626953 46.37646484 C19.30081787 45.87373047 20.17536621 45.37099609 21.07641602 44.85302734 C23.11767578 43.75146484 23.11767578 43.75146484 24.11767578 43.75146484 C24.35023598 48.14640546 24.49217653 52.53976771 24.61767578 56.93896484 C24.71822266 58.8077832 24.71822266 58.8077832 24.82080078 60.71435547 C25.01339547 69.69408281 25.01339547 69.69408281 22.5715332 72.57666016 C20.47625514 73.89848945 18.41373126 74.82710156 16.11767578 75.75146484 C14.81199018 76.49171756 13.51590848 77.24921636 12.23095703 78.02490234 C10.96562372 78.72829789 9.69870064 79.42884149 8.43017578 80.12646484 C7.47401367 80.67753906 7.47401367 80.67753906 6.49853516 81.23974609 C1.78551972 83.8175564 1.78551972 83.8175564 -1.28271484 83.51391602 C-4.13868108 82.67627678 -6.39385148 81.52695509 -8.96435547 80.02880859 C-9.89570313 79.490625 -10.82705078 78.95244141 -11.78662109 78.39794922 C-12.74632812 77.83398438 -13.70603516 77.27001953 -14.69482422 76.68896484 C-15.67386719 76.12113281 -16.65291016 75.55330078 -17.66162109 74.96826172 C-20.0722577 73.56891657 -22.47890932 72.16316555 -24.88232422 70.75146484 C-25.13630461 62.90508328 -25.31116732 55.05976384 -25.43164062 47.21020508 C-25.4762327 44.53995029 -25.55000143 41.87507032 -25.63671875 39.20532227 C-25.7583302 35.36454645 -25.81479587 31.52741107 -25.85888672 27.68505859 C-25.936306 25.90185463 -25.936306 25.90185463 -26.01528931 24.08262634 C-26.02077338 15.94605679 -26.02077338 15.94605679 -22.71890259 12.48135376 C-20.17752579 10.68657708 -17.63507812 9.19509753 -14.88232422 7.75146484 C-13.64656697 6.94242132 -12.41866457 6.12112028 -11.20263672 5.28271484 C-10.14818359 4.61240234 -9.09373047 3.94208984 -8.00732422 3.25146484 C-6.93740234 2.56052734 -5.86748047 1.86958984 -4.76513672 1.15771484 C-1.88232422 -0.24853516 -1.88232422 -0.24853516 0 0 Z M-9.19482422 21.12646484 C-10.24283203 21.75294922 -11.29083984 22.37943359 -12.37060547 23.02490234 C-14.96226273 24.50822195 -14.96226273 24.50822195 -15.88232422 26.75146484 C-15.99688955 28.21046336 -16.05169195 29.67439443 -16.07519531 31.13769531 C-16.09125824 32.04558807 -16.10732117 32.95348083 -16.12387085 33.8888855 C-16.16827551 38.03789555 -16.20937427 42.18674556 -16.23242188 46.3359375 C-16.24899716 48.52614964 -16.27630763 50.71630734 -16.31445312 52.90625 C-16.36912657 56.06067012 -16.3910802 59.2138227 -16.40576172 62.36865234 C-16.42843109 63.34792694 -16.45110046 64.32720154 -16.47445679 65.33615112 C-16.55424587 70.89046078 -16.55424587 70.89046078 -13.47412109 75.3190918 C-12.61882812 75.7917749 -11.76353516 76.26445801 -10.88232422 76.75146484 C-10.22490234 77.18072266 -9.56748047 77.60998047 -8.89013672 78.05224609 C-4.15874409 80.59463342 -1.22788649 81.34575535 4.11767578 79.75146484 C8.14651248 77.83677017 11.94794695 75.92119367 15.11767578 72.75146484 C15.28448687 69.66798658 15.28448687 69.66798658 15.11767578 66.75146484 C13.63267578 66.99896484 13.63267578 66.99896484 12.11767578 67.25146484 C1.61575876 68.67581391 1.61575876 68.67581391 -2.81982422 65.93896484 C-7.28216931 61.20617459 -6.14245166 54.69155446 -6.19482422 48.56396484 C-6.22382813 47.45214844 -6.25283203 46.34033203 -6.28271484 45.19482422 C-6.33417933 38.50840015 -5.91757797 33.25568868 -1.88232422 27.75146484 C0.32528216 25.59770252 2.4627368 24.38527345 5.11767578 22.75146484 C4.62011486 19.99505068 4.62011486 19.99505068 3.11767578 17.75146484 C-2.00106447 17.22685018 -4.85547439 18.47854278 -9.19482422 21.12646484 Z " fill="#000000" transform="translate(322.88232421875,71.24853515625)"/>
<path d="M0 0 C3.39756291 0.91826025 4.75695448 1.64885034 6.78746033 4.58250427 C8.27273571 8.76869496 8.42604411 12.2753106 8.40063477 16.67993164 C8.40761383 17.53109055 8.4145929 18.38224945 8.42178345 19.25920105 C8.44170331 22.05962127 8.4412598 24.85967161 8.44140625 27.66015625 C8.45318258 29.6125945 8.46654744 31.56502375 8.48143005 33.5174408 C8.51757826 38.64962072 8.53780695 43.78172093 8.55297852 48.91400146 C8.57783042 57.13185713 8.61748131 65.34953666 8.67487907 73.56722832 C8.69119206 76.4350027 8.69498411 79.30261038 8.69789124 82.17042542 C8.70766835 83.9301075 8.71793176 85.68978696 8.72875977 87.44946289 C8.72620682 88.24492523 8.72365387 89.04038757 8.72102356 89.85995483 C8.75926109 93.99646069 9.02531552 97.32482607 11 101 C15.00651462 104.37660556 19.38392817 106.65369889 24.5 107.75 C29.63910849 106.64876247 33.79206922 104.11161165 38 101 C39.57555896 97.84888208 39.16205327 94.46631984 39.17358398 91.00537109 C39.180271 90.17912231 39.18695801 89.35287354 39.19384766 88.50158691 C39.20791736 86.70314393 39.21980527 84.90468289 39.22979546 83.10621262 C39.2461954 80.25577049 39.26943599 77.40546079 39.29469299 74.55508423 C39.36547451 66.44906215 39.42542816 58.34298415 39.47680664 50.23681641 C39.50870048 45.28071863 39.55000947 40.32476996 39.59700203 35.36879349 C39.61296846 33.48307622 39.62531462 31.59732457 39.63390923 29.7115593 C39.64614101 27.06455217 39.67032571 24.41789145 39.69702148 21.77099609 C39.69761063 20.99873688 39.69819977 20.22647766 39.69880676 19.43081665 C39.78418423 13.00246818 40.25341045 7.09590746 44.5 2 C47 0 47 0 49 0 C49.20857299 12.54328235 49.36846641 25.08615198 49.46630955 37.63081551 C49.51327146 43.45599762 49.57696075 49.2799931 49.67895508 55.10449219 C49.77678062 60.72614052 49.83056514 66.34664807 49.85389519 71.96908188 C49.87051915 74.11344238 49.902984 76.2577407 49.95157051 78.40161514 C50.01697592 81.40729615 50.02590073 84.4082721 50.02172852 87.41455078 C50.054086 88.30000076 50.08644348 89.18545074 50.11978149 90.09773254 C50.08091834 92.68742345 49.9415179 94.5830545 49 97 C46.27799784 99.57457587 43.28925866 101.2462626 40 103 C38.72245579 103.84749014 37.4532706 104.70796354 36.19921875 105.58984375 C35.02903454 106.37297696 33.85846857 107.15554007 32.6875 107.9375 C31.79708008 108.55334961 31.79708008 108.55334961 30.88867188 109.18164062 C26.49649333 112.08527705 26.49649333 112.08527705 24.12612915 111.67814636 C23.42450653 111.45435806 22.72288391 111.23056976 22 111 C21.19090179 110.82958694 20.38180359 110.65917389 19.54818726 110.4835968 C12.40386204 108.70269804 5.5344005 105.89756041 0.98875427 99.8381424 C-5.95593421 86.92762794 -2.11432572 65.73681215 -1.51062012 51.67828369 C-1.28435367 45.85431566 -1.18484104 40.02828044 -1.07421875 34.20117188 C-0.83920823 22.79528049 -0.46448677 11.39869311 0 0 Z " fill="#000000" transform="translate(635,43)"/>
<path d="M0 0 C3.39756291 0.91826025 4.75695448 1.64885034 6.78746033 4.58250427 C8.27273571 8.76869496 8.42604411 12.2753106 8.40063477 16.67993164 C8.40761383 17.53109055 8.4145929 18.38224945 8.42178345 19.25920105 C8.44170331 22.05962127 8.4412598 24.85967161 8.44140625 27.66015625 C8.45318258 29.6125945 8.46654744 31.56502375 8.48143005 33.5174408 C8.51757826 38.64962072 8.53780695 43.78172093 8.55297852 48.91400146 C8.57783042 57.13185713 8.61748131 65.34953666 8.67487907 73.56722832 C8.69119206 76.4350027 8.69498411 79.30261038 8.69789124 82.17042542 C8.70766835 83.9301075 8.71793176 85.68978696 8.72875977 87.44946289 C8.72620682 88.24492523 8.72365387 89.04038757 8.72102356 89.85995483 C8.75926109 93.99646069 9.02531552 97.32482607 11 101 C15.00651462 104.37660556 19.38392817 106.65369889 24.5 107.75 C29.63910849 106.64876247 33.79206922 104.11161165 38 101 C39.57555896 97.84888208 39.16205327 94.46631984 39.17358398 91.00537109 C39.180271 90.17912231 39.18695801 89.35287354 39.19384766 88.50158691 C39.20791736 86.70314393 39.21980527 84.90468289 39.22979546 83.10621262 C39.2461954 80.25577049 39.26943599 77.40546079 39.29469299 74.55508423 C39.36547451 66.44906215 39.42542816 58.34298415 39.47680664 50.23681641 C39.50870048 45.28071863 39.55000947 40.32476996 39.59700203 35.36879349 C39.61296846 33.48307622 39.62531462 31.59732457 39.63390923 29.7115593 C39.64614101 27.06455217 39.67032571 24.41789145 39.69702148 21.77099609 C39.69761063 20.99873688 39.69819977 20.22647766 39.69880676 19.43081665 C39.78418423 13.00246818 40.25341045 7.09590746 44.5 2 C47 0 47 0 49 0 C49.20857299 12.54328235 49.36846641 25.08615198 49.46630955 37.63081551 C49.51327146 43.45599762 49.57696075 49.2799931 49.67895508 55.10449219 C49.77678062 60.72614052 49.83056514 66.34664807 49.85389519 71.96908188 C49.87051915 74.11344238 49.902984 76.2577407 49.95157051 78.40161514 C50.01697592 81.40729615 50.02590073 84.4082721 50.02172852 87.41455078 C50.054086 88.30000076 50.08644348 89.18545074 50.11978149 90.09773254 C50.08091834 92.68742345 49.9415179 94.5830545 49 97 C46.27799784 99.57457587 43.28925866 101.2462626 40 103 C38.72245579 103.84749014 37.4532706 104.70796354 36.19921875 105.58984375 C35.02903454 106.37297696 33.85846857 107.15554007 32.6875 107.9375 C31.79708008 108.55334961 31.79708008 108.55334961 30.88867188 109.18164062 C26.49649333 112.08527705 26.49649333 112.08527705 24.12612915 111.67814636 C23.42450653 111.45435806 22.72288391 111.23056976 22 111 C21.19090179 110.82958694 20.38180359 110.65917389 19.54818726 110.4835968 C12.40386204 108.70269804 5.5344005 105.89756041 0.98875427 99.8381424 C-5.95593421 86.92762794 -2.11432572 65.73681215 -1.51062012 51.67828369 C-1.28435367 45.85431566 -1.18484104 40.02828044 -1.07421875 34.20117188 C-0.83920823 22.79528049 -0.46448677 11.39869311 0 0 Z " fill="#000000" transform="translate(35,43)"/>
<path d="M0 0 C1.2063208 0.7271521 1.2063208 0.7271521 2.43701172 1.46899414 C3.31744141 1.9981543 4.19787109 2.52731445 5.10498047 3.07250977 C6.01634766 3.62745117 6.92771484 4.18239258 7.86669922 4.75415039 C8.78580078 5.30522461 9.70490234 5.85629883 10.65185547 6.42407227 C17.46758048 10.54253165 17.46758048 10.54253165 19.74169922 12.81665039 C19.96875 15.61401367 19.96875 15.61401367 19.93701172 19.13696289 C19.93056641 20.39379883 19.92412109 21.65063477 19.91748047 22.94555664 C19.90072266 24.26426758 19.88396484 25.58297852 19.86669922 26.94165039 C19.85666904 28.2814876 19.84754326 29.62133191 19.83935547 30.96118164 C19.81571997 34.24651612 19.78277156 37.53149504 19.74169922 40.81665039 C16.02479044 42.86065994 12.29146535 44.87263978 8.55419922 46.87915039 C7.49910156 47.45987305 6.44400391 48.0405957 5.35693359 48.63891602 C4.33535156 49.18354492 3.31376953 49.72817383 2.26123047 50.28930664 C0.85514526 51.05126343 0.85514526 51.05126343 -0.5793457 51.82861328 C-4.60450576 53.31315012 -6.94337753 52.40856526 -10.75366211 50.69335938 C-11.60726318 50.23775635 -12.46086426 49.78215332 -13.34033203 49.31274414 C-14.73735352 48.57314453 -14.73735352 48.57314453 -16.16259766 47.81860352 C-17.12230469 47.30233398 -18.08201172 46.78606445 -19.07080078 46.25415039 C-20.04984375 45.73401367 -21.02888672 45.21387695 -22.03759766 44.67797852 C-24.44760739 43.39655871 -26.85430298 42.10930329 -29.25830078 40.81665039 C-30.67258887 31.36220544 -32.08926126 21.09755774 -29.25830078 11.81665039 C-23.16201663 4.13351338 -9.64808884 -5.05559855 0 0 Z M-20.56689453 24.67993164 C-21.46166745 27.44513383 -21.52294998 29.84994728 -21.50830078 32.75415039 C-21.51345703 33.77379883 -21.51861328 34.79344727 -21.52392578 35.84399414 C-21.2416013 39.00353723 -20.81673645 41.05228235 -19.25830078 43.81665039 C-16.87809035 45.7086242 -16.87809035 45.7086242 -14.00830078 47.12915039 C-12.60837891 47.89678711 -12.60837891 47.89678711 -11.18017578 48.67993164 C-6.73251366 50.4102387 -3.73842486 50.445901 0.66357422 48.57446289 C1.59685547 48.03563477 2.53013672 47.49680664 3.49169922 46.94165039 C4.43529297 46.40797852 5.37888672 45.87430664 6.35107422 45.32446289 C8.80732578 43.89826431 8.80732578 43.89826431 10.74169922 41.81665039 C10.99435952 38.97862887 11.11198353 36.2804926 11.11669922 33.44165039 C11.1534375 32.28922852 11.1534375 32.28922852 11.19091797 31.11352539 C11.22034075 26.44101613 11.22034075 26.44101613 8.95654297 22.44946289 C8.22564453 21.91063477 7.49474609 21.37180664 6.74169922 20.81665039 C5.80390625 20.08188477 5.80390625 20.08188477 4.84716797 19.33227539 C-4.12858516 13.40937516 -14.13949188 15.52807772 -20.56689453 24.67993164 Z " fill="#000000" transform="translate(565.25830078125,73.183349609375)"/>
<path d="M0 0 C1.2063208 0.7271521 1.2063208 0.7271521 2.43701172 1.46899414 C3.31744141 1.9981543 4.19787109 2.52731445 5.10498047 3.07250977 C6.01634766 3.62745117 6.92771484 4.18239258 7.86669922 4.75415039 C8.78580078 5.30522461 9.70490234 5.85629883 10.65185547 6.42407227 C17.46758048 10.54253165 17.46758048 10.54253165 19.74169922 12.81665039 C19.96875 15.61401367 19.96875 15.61401367 19.93701172 19.13696289 C19.93056641 20.39379883 19.92412109 21.65063477 19.91748047 22.94555664 C19.90072266 24.26426758 19.88396484 25.58297852 19.86669922 26.94165039 C19.85666904 28.2814876 19.84754326 29.62133191 19.83935547 30.96118164 C19.81571997 34.24651612 19.78277156 37.53149504 19.74169922 40.81665039 C16.02479044 42.86065994 12.29146535 44.87263978 8.55419922 46.87915039 C7.49910156 47.45987305 6.44400391 48.0405957 5.35693359 48.63891602 C4.33535156 49.18354492 3.31376953 49.72817383 2.26123047 50.28930664 C0.85514526 51.05126343 0.85514526 51.05126343 -0.5793457 51.82861328 C-4.60450576 53.31315012 -6.94337753 52.40856526 -10.75366211 50.69335938 C-11.60726318 50.23775635 -12.46086426 49.78215332 -13.34033203 49.31274414 C-14.73735352 48.57314453 -14.73735352 48.57314453 -16.16259766 47.81860352 C-17.12230469 47.30233398 -18.08201172 46.78606445 -19.07080078 46.25415039 C-20.04984375 45.73401367 -21.02888672 45.21387695 -22.03759766 44.67797852 C-24.44760739 43.39655871 -26.85430298 42.10930329 -29.25830078 40.81665039 C-30.67258887 31.36220544 -32.08926126 21.09755774 -29.25830078 11.81665039 C-23.16201663 4.13351338 -9.64808884 -5.05559855 0 0 Z M-20.56689453 24.67993164 C-21.46166745 27.44513383 -21.52294998 29.84994728 -21.50830078 32.75415039 C-21.51345703 33.77379883 -21.51861328 34.79344727 -21.52392578 35.84399414 C-21.2416013 39.00353723 -20.81673645 41.05228235 -19.25830078 43.81665039 C-16.87809035 45.7086242 -16.87809035 45.7086242 -14.00830078 47.12915039 C-12.60837891 47.89678711 -12.60837891 47.89678711 -11.18017578 48.67993164 C-6.73251366 50.4102387 -3.73842486 50.445901 0.66357422 48.57446289 C1.59685547 48.03563477 2.53013672 47.49680664 3.49169922 46.94165039 C4.43529297 46.40797852 5.37888672 45.87430664 6.35107422 45.32446289 C8.80732578 43.89826431 8.80732578 43.89826431 10.74169922 41.81665039 C10.99435952 38.97862887 11.11198353 36.2804926 11.11669922 33.44165039 C11.1534375 32.28922852 11.1534375 32.28922852 11.19091797 31.11352539 C11.22034075 26.44101613 11.22034075 26.44101613 8.95654297 22.44946289 C8.22564453 21.91063477 7.49474609 21.37180664 6.74169922 20.81665039 C5.80390625 20.08188477 5.80390625 20.08188477 4.84716797 19.33227539 C-4.12858516 13.40937516 -14.13949188 15.52807772 -20.56689453 24.67993164 Z " fill="#000000" transform="translate(163.25830078125,73.183349609375)"/>
<path d="M0 0 C6.02064035 3.61238421 6.02064035 3.61238421 8 8 C8.39872742 10.87910461 8.39872742 10.87910461 8.43237305 14.07543945 C8.46206429 15.87674065 8.46206429 15.87674065 8.49235535 17.71443176 C8.49874527 19.00105209 8.50513519 20.28767242 8.51171875 21.61328125 C8.52857558 22.95136657 8.54672718 24.28943616 8.56611633 25.62748718 C8.61351421 29.13728924 8.64338909 32.64702747 8.66955566 36.15704346 C8.69941315 39.7434957 8.74592552 43.32972827 8.79101562 46.91601562 C8.87693208 53.94388504 8.94432894 60.97182768 9 68 C15.56319358 65.26508127 21.67730782 61.98523588 27.875 58.5 C28.93203125 57.91863281 29.9890625 57.33726563 31.078125 56.73828125 C32.08101563 56.17496094 33.08390625 55.61164063 34.1171875 55.03125 C35.48786377 54.26651367 35.48786377 54.26651367 36.88623047 53.48632812 C39.29494101 52.10541424 39.29494101 52.10541424 40 49 C40.09812595 47.66092675 40.14537277 46.31770465 40.15771484 44.97509766 C40.17310806 43.76836899 40.17310806 43.76836899 40.18881226 42.53726196 C40.19611359 41.67160614 40.20341492 40.80595032 40.2109375 39.9140625 C40.23900464 38.07811606 40.26766909 36.24217868 40.296875 34.40625 C40.33813672 31.51399983 40.37502806 28.62191896 40.40136719 25.72949219 C40.42900176 22.93649485 40.47487015 20.14426384 40.5234375 17.3515625 C40.52669037 16.48995514 40.52994324 15.62834778 40.53329468 14.7406311 C40.62914758 10.04943297 40.84195779 6.72546913 44 3 C45.65 2.01 47.3 1.02 49 0 C49 16.5 49 33 49 50 C43.5859375 52.908125 43.5859375 52.908125 38.0625 55.875 C30.43423554 59.99362941 22.84416702 64.16089028 15.375 68.5625 C14.70863525 68.9548584 14.04227051 69.3472168 13.35571289 69.75146484 C10.39496523 71.51318791 7.50230959 73.32380072 4.6640625 75.27734375 C2 77 2 77 0 77 C0 51.59 0 26.18 0 0 Z " fill="#000000" transform="translate(417,44)"/>
<path d="M0 0 C-1.53140625 0.83917969 -1.53140625 0.83917969 -3.09375 1.6953125 C-13.47635141 7.41259868 -23.74075259 13.3088847 -33.9375 19.35205078 C-34.91332031 19.92681152 -35.88914062 20.50157227 -36.89453125 21.09375 C-37.75925049 21.60615234 -38.62396973 22.11855469 -39.51489258 22.64648438 C-42 24 -42 24 -47 26 C-47 21.05 -47 16.1 -47 11 C-48.98 10.34 -50.96 9.68 -53 9 C-54.96630859 8.03857422 -54.96630859 8.03857422 -56.6484375 7.0546875 C-57.26074219 6.70019531 -57.87304688 6.34570312 -58.50390625 5.98046875 C-59.12136719 5.61566406 -59.73882812 5.25085937 -60.375 4.875 C-61.01566406 4.50246094 -61.65632813 4.12992188 -62.31640625 3.74609375 C-63.88048477 2.83565998 -65.44065534 1.91851809 -67 1 C-64 0 -64 0 -62.17822266 0.64916992 C-61.5135498 1.00599854 -60.84887695 1.36282715 -60.1640625 1.73046875 C-59.06191406 2.31731445 -59.06191406 2.31731445 -57.9375 2.91601562 C-57.174375 3.33560547 -56.41125 3.75519531 -55.625 4.1875 C-54.86960937 4.58775391 -54.11421875 4.98800781 -53.3359375 5.40039062 C-42.76708589 11.10054923 -42.76708589 11.10054923 -40.6875 16.25 C-40.460625 17.1575 -40.23375 18.065 -40 19 C-31.23120776 14.25850863 -22.55559181 9.36462596 -13.90234375 4.41601562 C-12.92394531 3.85978516 -11.94554687 3.30355469 -10.9375 2.73046875 C-10.05964844 2.22926514 -9.18179688 1.72806152 -8.27734375 1.21166992 C-4.94488533 -0.56137801 -3.67361793 -1.22453931 0 0 Z " fill="#030000" transform="translate(156,43)"/>
<path d="M0 0 C3.77040757 0.59037364 6.61473402 1.67056645 9.94921875 3.51171875 C10.88056641 4.02283203 11.81191406 4.53394531 12.77148438 5.06054688 C13.73376953 5.59744141 14.69605469 6.13433594 15.6875 6.6875 C16.63044922 7.20505859 17.57339844 7.72261719 18.54492188 8.25585938 C24.12541584 11.33567838 29.60397927 14.5401597 35.01489258 17.90942383 C36.91465654 19.16050026 36.91465654 19.16050026 39 19 C39.515625 18.13375 40.03125 17.2675 40.5625 16.375 C45.37004435 8.8731176 55.95432942 4.10471072 64 1 C64.99 1.33 65.98 1.66 67 2 C66.39937744 2.25990723 65.79875488 2.51981445 65.17993164 2.78759766 C54.17111129 7.09476952 54.17111129 7.09476952 45.95458984 14.89501953 C44.90227298 18.96092788 45.26009541 22.91262384 46 27 C38.11557615 22.72024812 30.26626646 18.3806659 22.4375 14 C21.37853516 13.40960938 20.31957031 12.81921875 19.22851562 12.2109375 C4.29237132 3.85479515 4.29237132 3.85479515 0 1 C0 0.67 0 0.34 0 0 Z " fill="#020000" transform="translate(563,42)"/>
</svg>
